<svg width="22" height="22" viewBox="0 0 22 22" fill="none" xmlns="http://www.w3.org/2000/svg">
<circle cx="11" cy="11" r="10.7181" stroke="white" stroke-width="0.563764"/>
<path d="M4 12.2236C4.06587 11.9765 4.10539 11.7165 4.17126 11.4564C4.4245 10.5826 4.95561 9.81221 5.68623 9.25898L5.81797 9.16796C5.93226 9.58217 6.06857 9.99015 6.22635 10.3902C6.64429 11.3613 7.36392 12.1763 8.28145 12.7177C8.32739 12.7404 8.36558 12.7759 8.39132 12.8198C8.41707 12.8637 8.42925 12.9141 8.42636 12.9647C8.46731 13.868 8.76396 14.7419 9.28265 15.4872C9.54172 15.8223 9.81877 16.1435 10.1126 16.4494L10.2443 16.5404C9.89248 16.7157 9.51443 16.8342 9.12457 16.8915C8.40817 17.0223 7.66985 16.9716 6.97868 16.7442C6.28751 16.5168 5.66606 16.1201 5.17246 15.5912C4.56521 14.9405 4.18243 14.1166 4.07904 13.2378C4.08475 13.2121 4.08475 13.1854 4.07904 13.1597L4 12.2236ZM16.0408 16.2544C16.6305 15.8703 17.1169 15.3506 17.458 14.7399C17.7992 14.1293 17.9849 13.4459 17.9991 12.7487C18.0134 12.0515 17.8558 11.3613 17.5399 10.7376C17.224 10.1138 16.7592 9.57515 16.1857 9.16796C16.0625 9.90813 15.7785 10.6132 15.3533 11.2349C14.9281 11.8566 14.3717 12.3801 13.7222 12.7696C13.6168 12.8347 13.63 12.9127 13.6168 13.0037C13.5537 14.1546 13.0882 15.2483 12.2994 16.0983C12.1545 16.2673 11.9833 16.4104 11.7988 16.5924C12.4734 16.9098 13.221 17.0458 13.9659 16.9864C14.7108 16.9271 15.4265 16.6745 16.0408 16.2544ZM6.81917 7.7247C7.47074 7.52467 8.15643 7.4561 8.83541 7.52312C9.51438 7.59013 10.1727 7.79134 10.7713 8.11476C10.8153 8.13986 10.8653 8.15309 10.9162 8.15309C10.9671 8.15309 11.017 8.13986 11.0611 8.11476C12.0588 7.56697 13.2168 7.37415 14.3414 7.56863C14.6444 7.56863 14.9342 7.69869 15.224 7.7637C15.0937 6.72493 14.5832 5.76896 13.7886 5.07578C12.994 4.3826 11.9701 4 10.9096 4C9.84912 4 8.82521 4.3826 8.03061 5.07578C7.236 5.76896 6.72551 6.72493 6.59522 7.7637L6.81917 7.7247ZM10.3102 9.81808C9.70912 10.4789 9.33959 11.3132 9.25631 12.1975C9.25631 12.2885 9.25631 12.3276 9.3617 12.3536C9.75792 12.511 10.1749 12.6117 10.6 12.6526C11.2919 12.7126 11.9882 12.6055 12.6288 12.3406C12.6371 12.3222 12.6415 12.3022 12.6415 12.282C12.6415 12.2619 12.6371 12.242 12.6288 12.2236C12.6163 12.0441 12.5899 11.8659 12.5497 11.6905C12.3414 10.6948 11.7869 9.80246 10.9821 9.16796C10.7581 9.402 10.5342 9.59704 10.3366 9.81808H10.3102ZM13.6168 11.7685C14.0963 11.4176 14.4979 10.9736 14.797 10.4637C15.096 9.95388 15.2862 9.389 15.3557 8.80389C15.3616 8.78167 15.3628 8.75849 15.3592 8.7358C15.3557 8.71311 15.3475 8.69138 15.3352 8.67191C15.3228 8.65244 15.3066 8.63567 15.2875 8.62259C15.2684 8.60951 15.2468 8.60041 15.224 8.59584C14.4778 8.31136 13.6678 8.23052 12.8791 8.36181C12.5049 8.42489 12.1414 8.53866 11.7988 8.69989C12.7411 9.48977 13.3631 10.5885 13.5509 11.7945L13.6168 11.7685ZM8.43954 11.7685C8.64429 10.5616 9.26846 9.46282 10.2048 8.66084C9.64321 8.41303 9.03495 8.28495 8.41978 8.28495C7.8046 8.28495 7.19635 8.41303 6.63474 8.66084C6.68577 9.29014 6.87479 9.90097 7.18869 10.451C7.5026 11.0011 7.9339 11.4772 8.45271 11.8465L8.43954 11.7685ZM11.0743 16.0333C11.5395 15.6913 11.9308 15.2609 12.2249 14.7674C12.519 14.2739 12.7101 13.7273 12.7869 13.1597C11.673 13.5392 10.4624 13.5392 9.34852 13.1597C9.41085 13.7364 9.58989 14.2947 9.87503 14.8018C10.1602 15.3088 10.5456 15.7541 11.0084 16.1113L11.0743 16.0333Z" fill="white"/>
</svg>
