<svg width="12" height="12" viewBox="0 0 12 12" fill="none" xmlns="http://www.w3.org/2000/svg">
<path d="M11.8884 1.06914C11.5923 1.34341 11.2884 1.61024 11.0077 1.90086C8.5111 4.48706 6.73623 7.51886 5.8038 11.068C5.78273 11.1482 5.75951 11.2281 5.74309 11.3099C5.71702 11.4381 5.65774 11.5329 5.52882 11.5645C5.3999 11.5961 5.3174 11.5273 5.23848 11.4366C4.88827 11.0402 4.53746 10.645 4.18606 10.2511L0.147779 5.70565C0.126709 5.68187 0.106354 5.65697 0.0845699 5.63393C0.0445461 5.59604 0.0169524 5.54604 0.00567678 5.49097C-0.00559885 5.4359 1.14548e-05 5.37853 0.021717 5.32696C0.0681422 5.20618 0.164564 5.156 0.288483 5.156H1.6116C1.97265 5.156 2.33369 5.15935 2.69474 5.156C2.75673 5.15326 2.81847 5.16584 2.8749 5.19271C2.93132 5.21959 2.98083 5.25999 3.01936 5.3106C3.53718 5.93619 4.05714 6.55954 4.57924 7.18067C4.6196 7.22898 4.65995 7.27692 4.70602 7.33118C4.81744 7.11712 4.91851 6.91123 5.02993 6.71204C5.74416 5.43585 6.67266 4.34956 7.7308 3.37513C8.89286 2.30334 10.1735 1.40844 11.5412 0.646593C11.6091 0.603249 11.6861 0.57774 11.7655 0.572266C11.8175 0.572408 11.8678 0.590852 11.9084 0.624593C11.949 0.658335 11.9774 0.705386 11.9891 0.758083C12.0216 0.883324 11.9798 0.982922 11.8884 1.06914Z" fill="white"/>
</svg>
