<svg width="516" height="51" viewBox="0 0 516 51" fill="none" xmlns="http://www.w3.org/2000/svg">
<path d="M516 43.1086H507.513L505.962 37.7745H494.033L492.481 43.1086H483.995L495.051 9.16471H504.944L516 43.1086ZM484.685 42.6084H492.106L493.657 37.2743H506.337L506.443 37.6348L507.889 42.6084H515.31L504.581 9.6649H495.415L484.685 42.6084ZM504.449 31.0013H495.547L499.998 15.8792L504.449 31.0013ZM496.215 30.5011H503.779L499.998 17.6504L496.215 30.5011Z" fill="#00A499"/>
<path d="M474.045 43.1086H458.043V50.0918H450.285V35.8353H453.582L453.885 35.4044C455.272 33.3354 456.256 30.4057 456.381 25.4777L456.395 24.3913V9.16471H478.167V35.8353H481.804V50.0918H474.045V43.1086ZM464.153 16.438V24.4881L464.141 25.5422C464.024 30.6779 463.056 33.7895 461.874 35.8353H470.408V16.438H464.153ZM456.895 24.3913C456.895 30.4215 455.717 33.7877 453.985 36.1323L453.834 36.3355H450.785V49.5916H457.543V42.6084H474.545V49.5916H481.304V36.3355H477.667V9.6649H456.895V24.3913ZM470.908 36.3355H461.007L461.441 35.5852C462.644 33.5022 463.652 30.2018 463.652 24.4881V15.9379H470.908V36.3355Z" fill="#00A499"/>
<path d="M448.581 26.1371C448.581 16.4288 440.906 8.98608 431.431 8.98593C421.956 8.98593 414.28 16.4287 414.28 26.1371C414.28 35.8454 421.956 43.2874 431.431 43.2874V43.7876L430.975 43.7817C421.59 43.5508 414.023 36.2083 413.785 26.6031L413.779 26.1371C413.779 16.148 421.684 8.48573 431.431 8.48573L431.886 8.49159C441.422 8.72602 449.081 16.3041 449.081 26.1371L449.075 26.6031C448.834 36.3633 441.025 43.7874 431.431 43.7876V43.2874C440.906 43.2872 448.581 35.8453 448.581 26.1371ZM441.322 26.1371C441.322 20.2653 437.227 16.3039 431.946 16.0619L431.431 16.0502C425.903 16.0502 421.538 20.0757 421.538 26.1371L421.551 26.6989C421.804 32.2604 425.805 35.9775 430.916 36.2114L431.431 36.2231C436.786 36.223 441.049 32.4456 441.31 26.6989L441.322 26.1371ZM441.823 26.1371C441.822 32.4793 437.23 36.7232 431.431 36.7233C425.632 36.7233 421.038 32.4794 421.038 26.1371C421.038 19.7947 425.631 15.55 431.431 15.55C437.23 15.5502 441.823 19.7948 441.823 26.1371Z" fill="#00A499"/>
<path d="M400.698 16.1323H412.337V9.6649H393.94V42.6084H400.698V16.1323ZM401.198 43.1086H393.44V9.16471H412.837V16.6325H401.198V43.1086Z" fill="#00A499"/>
<path d="M368.446 43.1086H352.444V50.0918H344.685V35.8353H347.983L348.286 35.4044C349.673 33.3354 350.657 30.4055 350.782 25.4777L350.795 24.3913V9.16471H372.568V35.8353H376.205V50.0918H368.446V43.1086ZM358.554 16.438V24.4881L358.542 25.5422C358.426 30.6779 357.457 33.7895 356.275 35.8353H364.809V16.438H358.554ZM351.295 24.3913C351.295 30.4216 350.118 33.7877 348.385 36.1323L348.235 36.3355H345.185V49.5916H351.944V42.6084H368.947V49.5916H375.705V36.3355H372.068V9.6649H351.295V24.3913ZM365.309 36.3355H355.408L355.842 35.5852C357.045 33.5022 358.054 30.2018 358.054 24.4881V15.9379H365.309V36.3355Z" fill="#00A499"/>
<path d="M332.822 21.9177V9.16471H340.581V43.1086H332.822V29.3855H323.124V43.1086H315.365V9.16471H323.124V21.9177H332.822ZM333.322 22.4179H322.624V9.6649H315.865V42.6084H322.624V28.8853H333.322V42.6084H340.081V9.6649H333.322V22.4179Z" fill="#00A499"/>
<path d="M297.42 29.0797H308.572V22.8058H297.42V16.1323H309.785V9.6649H290.661V42.6084H292.586V43.1086H290.161V9.16471H310.285V16.6325H297.92V22.3056H309.073V29.5799H297.92V35.6408H310.527V43.1086H292.586V42.6084H310.027V36.141H297.42V29.0797Z" fill="#00A499"/>
<path d="M285.305 20.803C285.305 14.6367 280.346 9.6649 273.924 9.6649H261.575V42.6084H268.332V31.9402H273.924V32.4404H268.832V43.1086H261.074V9.16471H273.924C280.616 9.16471 285.805 14.3537 285.805 20.803L285.801 21.1039C285.642 27.4128 280.511 32.4404 273.924 32.4404V31.9402C280.346 31.9402 285.304 26.9692 285.305 20.803ZM278.046 20.803C278.046 18.33 276.3 16.438 273.924 16.438V15.9379C276.606 15.9379 278.546 18.0844 278.546 20.803C278.546 23.5215 276.606 25.6672 273.924 25.6672H268.332V15.9379H273.924V16.438H268.832V25.167H273.924C276.226 25.167 277.936 23.392 278.041 21.0326L278.046 20.803Z" fill="#00A499"/>
<path d="M248.936 16.1323H256.695V9.6649H234.42V16.1323H242.177V42.6084H248.936V16.1323ZM249.436 43.1086H241.677V16.6325H233.919V9.16471H257.195V16.6325H249.436V43.1086Z" fill="#00A499"/>
<path d="M199.471 9.16471V28.0764L211.594 9.16471H217.413V43.1086H209.655V24.1969L197.532 43.1086H191.712V9.16471H199.471ZM192.213 42.6084H197.259L210.155 22.4902V42.6084H216.913V9.6649H211.868L198.971 29.7831V9.6649H192.213V42.6084ZM212.322 0V6.30422H197.774V0H212.322ZM198.275 5.80402H211.822V0.500195H198.275V5.80402Z" fill="#00A499"/>
<path d="M185.428 9.16471V43.1086H177.669V9.16471H185.428ZM174.259 31.4703C174.259 25.3043 169.302 20.3334 162.88 20.3331H157.288V9.6649H150.529V42.6084H162.88V43.1086H150.029V9.16471H157.788V19.8329H162.88C169.571 19.8332 174.759 25.0213 174.76 31.4703C174.76 37.819 169.732 42.9463 163.192 43.1047L162.88 43.1086V42.6084C169.302 42.6082 174.259 37.6365 174.259 31.4703ZM178.169 42.6084H184.928V9.6649H178.169V42.6084ZM167.002 31.4703C167.001 29.0749 165.363 27.2256 163.101 27.1121L162.88 27.1063V26.6061C165.562 26.6063 167.502 28.752 167.502 31.4703C167.502 34.1888 165.562 36.3352 162.88 36.3355H157.288V26.6061H162.88V27.1063H157.788V35.8353H162.88C165.181 35.835 166.891 34.06 166.996 31.7008L167.002 31.4703Z" fill="#00A499"/>
<path d="M135.984 21.9177V9.16471H143.743V43.1086H135.984V29.3855H126.286V43.1086H118.527V9.16471H126.286V21.9177H135.984ZM136.484 22.4179H125.785V9.6649H119.027V42.6084H125.785V28.8853H136.484V42.6084H143.242V9.6649H136.484V22.4179Z" fill="#00A499"/>
<path d="M103.225 42.6084V43.1086H86.7858V42.6084H103.225ZM113.441 32.4404C113.441 28.3074 111.358 24.9843 108.075 23.1809L107.606 22.923L107.895 22.4726C108.627 21.328 109.077 20.014 109.077 18.6205C109.077 13.4644 104.889 9.6649 99.151 9.6649H85.3468V42.6084H86.7858V43.1086H84.8466V9.16471H99.151C105.115 9.16471 109.577 13.141 109.577 18.6205C109.577 20.1237 109.092 21.53 108.317 22.7423C111.759 24.6334 113.941 28.1249 113.941 32.4404C113.941 38.3593 109.664 42.8217 103.797 43.0949L103.225 43.1086V42.6084C109.108 42.6083 113.441 38.2725 113.441 32.4404ZM106.183 31.9558C106.183 29.8419 105.136 28.1828 102.558 28.0813L102.304 28.0764V27.5762C103.792 27.5762 104.912 28.0367 105.653 28.8638C106.385 29.6811 106.683 30.7863 106.683 31.9558C106.683 33.1252 106.384 34.231 105.645 35.0488C104.897 35.8758 103.765 36.3355 102.255 36.3355H92.1052V27.5762H102.304V28.0764H92.6054V35.8353H102.255C104.892 35.8353 106.037 34.343 106.169 32.3583L106.183 31.9558ZM101.818 19.1051C101.818 17.5051 100.751 16.438 99.151 16.438V15.9379C100.065 15.9379 100.866 16.2449 101.439 16.8181C102.012 17.3912 102.318 18.1915 102.318 19.1051C102.318 20.0191 101.922 20.9774 101.188 21.6549L101.044 21.7878H92.1052V15.9379H99.151V16.438H92.6054V21.2876H100.849C101.479 20.7057 101.818 19.8809 101.818 19.1051Z" fill="#00A499"/>
<path d="M81.4448 43.1086H72.9581L71.4067 37.7745H59.4783L57.9259 43.1086H49.4402L60.4962 9.16471H70.3888L81.4448 43.1086ZM50.1299 42.6084H57.5508L59.1021 37.2743H71.7819L71.8874 37.6348L73.3343 42.6084H80.7551L70.0253 9.6649H60.8597L50.1299 42.6084ZM69.8935 31.0013H60.9916L65.4425 15.8792L69.8935 31.0013ZM61.6598 30.5011H69.2252L65.4425 17.6504L61.6598 30.5011Z" fill="#00A499"/>
<path d="M31.8063 16.6325V29.3366C31.8063 41.4593 24.6785 43.7872 18.4232 43.2053V35.932C21.8053 36.3547 23.9132 35.3666 24.0416 30.1465L24.0484 29.6278V9.16471H46.0629V43.1086H38.304V16.6325H31.8063ZM38.8042 42.6084H45.5627V9.6649H24.5486V29.6278C24.5486 32.4959 24.0149 34.364 22.8888 35.4337C21.8698 36.4017 20.4789 36.6101 18.9234 36.4849V42.7422C21.8457 42.9437 24.8472 42.4612 27.1502 40.6428C29.5561 38.7431 31.3062 35.301 31.3062 29.3366V16.1323H38.8042V42.6084Z" fill="#00A499"/>
<path d="M7.25869 16.1323H18.896V9.6649H0.500195V42.6084H7.25869V16.1323ZM7.75888 43.1086H0V9.16471H19.3962V16.6325H7.75888V43.1086Z" fill="#00A499"/>
</svg>
