<svg width="12" height="11" viewBox="0 0 12 11" fill="none" xmlns="http://www.w3.org/2000/svg">
<path d="M11.8884 0.496875C11.5923 0.771142 11.2884 1.03798 11.0077 1.32859C8.5111 3.9148 6.73623 6.94659 5.8038 10.4957C5.78273 10.576 5.75951 10.6559 5.74309 10.7376C5.71702 10.8658 5.65774 10.9606 5.52882 10.9922C5.3999 11.0238 5.3174 10.955 5.23848 10.8644C4.88827 10.468 4.53746 10.0728 4.18606 9.67885L0.147779 5.13339C0.126709 5.1096 0.106354 5.0847 0.0845699 5.06166C0.0445461 5.02377 0.0169524 4.97377 0.00567678 4.9187C-0.00559885 4.86363 1.14548e-05 4.80627 0.021717 4.75469C0.0681422 4.63391 0.164564 4.58374 0.288483 4.58374H1.6116C1.97265 4.58374 2.33369 4.58708 2.69474 4.58374C2.75673 4.581 2.81847 4.59358 2.8749 4.62045C2.93132 4.64732 2.98083 4.68772 3.01936 4.73834C3.53718 5.36392 4.05714 5.98728 4.57924 6.6084C4.6196 6.65672 4.65995 6.70466 4.70602 6.75892C4.81744 6.54485 4.91851 6.33897 5.02993 6.13977C5.74416 4.86358 6.67266 3.77729 7.7308 2.80287C8.89286 1.73107 10.1735 0.836178 11.5412 0.0743269C11.6091 0.0309835 11.6861 0.00547397 11.7655 0C11.8175 0.000142275 11.8678 0.0185863 11.9084 0.0523279C11.949 0.0860695 11.9774 0.13312 11.9891 0.185817C12.0216 0.311058 11.9798 0.410656 11.8884 0.496875Z" fill="white"/>
</svg>
