<svg width="23" height="24" viewBox="0 0 23 24" fill="none" xmlns="http://www.w3.org/2000/svg">
<circle cx="11.1453" cy="12.0723" r="10.8143" fill="#FCF9F7" stroke="#00A499" stroke-width="0.6621"/>
<path d="M16.2108 19.0723L13.392 16.2511C13.0506 16.6101 12.6394 16.8954 12.1838 17.0895C11.7281 17.2835 11.2376 17.3823 10.7424 17.3796C10.2543 17.381 9.77076 17.2861 9.3194 17.1002C8.86805 16.9143 8.45779 16.641 8.11214 16.2961C7.76649 15.9512 7.49224 15.5414 7.30512 15.0903C7.118 14.6391 7.02168 14.1554 7.02168 13.6669C7.11737 12.6594 7.44962 11.6889 7.99133 10.8344L4 6.86219L4.78925 6.07227L17 18.2936L16.2108 19.0723ZM14.4519 13.633C14.4519 11.1504 10.7424 6.96375 10.7424 6.96375C10.7424 6.96375 10.0208 7.77626 9.2203 8.89345L14.4293 14.0957C14.4403 13.9417 14.4403 13.7871 14.4293 13.633" fill="#00A499"/>
</svg>
