<svg width="23" height="23" viewBox="0 0 23 23" fill="none" xmlns="http://www.w3.org/2000/svg">
<circle cx="11.5" cy="11.5" r="11.1689" fill="#FCF9F7" stroke="#00A499" stroke-width="0.6621"/>
<path d="M16.7266 18.7227L13.8182 15.8118C13.4659 16.1822 13.0416 16.4766 12.5715 16.6768C12.1013 16.8771 11.5952 16.9789 11.0842 16.9761C10.5806 16.9777 10.0817 16.8797 9.61594 16.6879C9.15023 16.496 8.72692 16.2141 8.37027 15.8582C8.01362 15.5024 7.73065 15.0795 7.53757 14.614C7.34449 14.1485 7.24511 13.6494 7.24511 13.1453C7.34385 12.1058 7.68666 11.1044 8.24561 10.2227L4.12728 6.12411L4.94164 5.30905L17.5409 17.9193L16.7266 18.7227ZM14.9117 13.1104C14.9117 10.5488 11.0842 6.2289 11.0842 6.2289C11.0842 6.2289 10.3397 7.06726 9.51369 8.22L14.8885 13.5878C14.8998 13.4289 14.8998 13.2693 14.8885 13.1104" fill="#00A499"/>
</svg>
