<svg width="23" height="24" viewBox="0 0 23 24" fill="none" xmlns="http://www.w3.org/2000/svg">
<circle cx="11.1453" cy="12.0723" r="10.8143" fill="#FCF9F7" stroke="#00A499" stroke-width="0.6621"/>
<path d="M14.3493 12.3624L11.3033 6.45611L11.1849 6.21813C11.1567 6.17345 11.1178 6.13664 11.0717 6.11114C11.0256 6.08564 10.9738 6.07227 10.9212 6.07227C10.8686 6.07227 10.8168 6.08564 10.7707 6.11114C10.7246 6.13664 10.6856 6.17345 10.6575 6.21813L9.01073 9.39843L8.72012 9.95011C8.72012 9.95011 7.40701 12.4922 7.49312 12.3408C7.24036 12.8031 7.08398 13.3124 7.03352 13.8375C6.98306 14.3626 7.03958 14.8925 7.19963 15.3949C7.35969 15.8973 7.61992 16.3617 7.96444 16.7597C8.30897 17.1577 8.73057 17.481 9.20351 17.7098C9.67646 17.9387 10.1908 18.0683 10.7153 18.0907C11.2397 18.1131 11.7632 18.0279 12.2538 17.8403C12.7443 17.6527 13.1918 17.3666 13.5687 16.9995C13.9456 16.6323 14.2442 16.1919 14.4461 15.705L14.6614 15.0775C14.7391 14.7662 14.7789 14.4466 14.7798 14.1256C14.7803 13.5046 14.6327 12.8926 14.3493 12.3408M10.9158 16.8191C10.2069 16.8163 9.52797 16.5312 9.02769 16.0264C8.52741 15.5216 8.24653 14.8381 8.24654 14.1256C8.25972 14.0564 8.2965 13.994 8.35052 13.9491C8.40454 13.9043 8.47244 13.8797 8.54253 13.8797C8.61262 13.8797 8.68051 13.9043 8.73454 13.9491C8.78856 13.994 8.82533 14.0564 8.83852 14.1256C8.84419 14.6756 9.06554 15.201 9.4545 15.5879C9.84345 15.9748 10.3686 16.1918 10.9158 16.1917C10.9957 16.1917 11.0724 16.2236 11.1289 16.2804C11.1854 16.3373 11.2172 16.4143 11.2172 16.4946C11.2172 16.5749 11.1854 16.652 11.1289 16.7088C11.0724 16.7656 10.9957 16.7975 10.9158 16.7975" fill="#00A499"/>
</svg>
