<svg width="23" height="23" viewBox="0 0 23 23" fill="none" xmlns="http://www.w3.org/2000/svg">
<circle cx="11.5" cy="11.5" r="11.1689" fill="#FCF9F7" stroke="#00A499" stroke-width="0.6621"/>
<path d="M14.8059 11.7993L11.663 5.70511L11.5408 5.45955C11.5117 5.41345 11.4716 5.37547 11.424 5.34916C11.3764 5.32284 11.323 5.30905 11.2687 5.30905C11.2144 5.30905 11.161 5.32284 11.1134 5.34916C11.0658 5.37547 11.0257 5.41345 10.9966 5.45955L9.29745 8.74105L8.99759 9.31029C8.99759 9.31029 7.6427 11.9333 7.73155 11.777C7.47075 12.2541 7.30939 12.7795 7.25733 13.3213C7.20526 13.8631 7.26358 14.4099 7.42873 14.9283C7.59387 15.4467 7.86238 15.9259 8.21787 16.3366C8.57336 16.7472 9.00837 17.0808 9.49637 17.3169C9.98436 17.553 10.5151 17.6867 11.0562 17.7099C11.5973 17.7331 12.1375 17.6452 12.6437 17.4516C13.1499 17.258 13.6115 16.9628 14.0004 16.584C14.3894 16.2052 14.6974 15.7507 14.9058 15.2482L15.1279 14.6009C15.2081 14.2797 15.2491 13.9498 15.2501 13.6187C15.2507 12.9779 15.0983 12.3464 14.8059 11.777M11.2632 16.3979C10.5317 16.3949 9.83115 16.1008 9.31495 15.5799C8.79876 15.059 8.50894 14.3538 8.50894 13.6187C8.52255 13.5473 8.56049 13.4829 8.61623 13.4366C8.67197 13.3903 8.74203 13.3649 8.81435 13.3649C8.88667 13.3649 8.95673 13.3903 9.01247 13.4366C9.06821 13.4829 9.10615 13.5473 9.11976 13.6187C9.12561 14.1861 9.35401 14.7283 9.75534 15.1275C10.1567 15.5267 10.6985 15.7505 11.2632 15.7505C11.3456 15.7505 11.4247 15.7834 11.483 15.8421C11.5413 15.9007 11.5741 15.9801 11.5741 16.063C11.5741 16.1459 11.5413 16.2254 11.483 16.284C11.4247 16.3426 11.3456 16.3756 11.2632 16.3756" fill="#00A499"/>
</svg>
