<svg width="516" height="51" viewBox="0 0 516 51" fill="none" xmlns="http://www.w3.org/2000/svg">
<path d="M515.899 43.0918H507.416L505.865 37.7598H493.941L492.39 43.0918H483.907L494.959 9.16113H504.848L515.899 43.0918ZM484.597 42.5918H492.015L493.565 37.2598H506.24L506.346 37.6201L507.792 42.5918H515.21L504.484 9.66113H495.322L484.597 42.5918ZM504.353 30.9893H495.454L499.903 15.873L504.353 30.9893ZM496.122 30.4893H503.684L499.903 17.6436L496.122 30.4893Z" fill="#00A499"/>
<path d="M473.961 43.0918H457.965V50.0723H450.21V35.8213H453.506L453.809 35.3906C455.195 33.3224 456.179 30.3938 456.304 25.4678L456.317 24.3818V9.16113H478.081V35.8213H481.717V50.0723H473.961V43.0918ZM464.072 16.4316V24.4785L464.061 25.5322C463.944 30.666 462.976 33.7763 461.795 35.8213H470.325V16.4316H464.072ZM456.817 24.3818C456.817 30.4096 455.64 33.7745 453.908 36.1182L453.758 36.3213H450.71V49.5723H457.465V42.5918H474.461V49.5723H481.217V36.3213H477.581V9.66113H456.817V24.3818ZM470.825 36.3213H460.928L461.361 35.5713C462.564 33.4892 463.572 30.19 463.572 24.4785V15.9316H470.825V36.3213Z" fill="#00A499"/>
<path d="M448.507 26.127C448.507 16.4224 440.834 8.98258 431.363 8.98242C421.892 8.98242 414.219 16.4223 414.219 26.127C414.219 35.8314 421.892 43.2705 431.363 43.2705V43.7705L430.907 43.7646C421.526 43.5338 413.962 36.1942 413.725 26.5928L413.719 26.127C413.719 16.1417 421.62 8.48242 431.363 8.48242L431.818 8.48828C441.351 8.72262 449.007 16.2977 449.007 26.127L449.001 26.5928C448.759 36.3491 440.954 43.7704 431.363 43.7705V43.2705C440.834 43.2704 448.507 35.8313 448.507 26.127ZM441.251 26.127C441.251 20.2574 437.157 16.2976 431.878 16.0557L431.363 16.0439C425.837 16.0439 421.475 20.0679 421.475 26.127L421.487 26.6885C421.74 32.2478 425.739 35.9634 430.849 36.1973L431.363 36.209C436.716 36.2088 440.977 32.4329 441.238 26.6885L441.251 26.127ZM441.751 26.127C441.751 32.4666 437.16 36.7088 431.363 36.709C425.566 36.709 420.975 32.4667 420.975 26.127C420.975 19.787 425.566 15.5439 431.363 15.5439C437.16 15.5441 441.751 19.7871 441.751 26.127Z" fill="#00A499"/>
<path d="M400.643 16.126H412.276V9.66113H393.887V42.5918H400.643V16.126ZM401.143 43.0918H393.387V9.16113H412.776V16.626H401.143V43.0918Z" fill="#00A499"/>
<path d="M368.403 43.0918H352.407V50.0723H344.651V35.8213H347.948L348.251 35.3906C349.638 33.3224 350.621 30.3937 350.746 25.4678L350.759 24.3818V9.16113H372.523V35.8213H376.159V50.0723H368.403V43.0918ZM358.515 16.4316V24.4785L358.503 25.5322C358.387 30.666 357.418 33.7763 356.236 35.8213H364.768V16.4316H358.515ZM351.259 24.3818C351.259 30.4097 350.082 33.7745 348.35 36.1182L348.2 36.3213H345.151V49.5723H351.907V42.5918H368.903V49.5723H375.659V36.3213H372.023V9.66113H351.259V24.3818ZM365.268 36.3213H355.37L355.804 35.5713C357.007 33.4892 358.015 30.19 358.015 24.4785V15.9316H365.268V36.3213Z" fill="#00A499"/>
<path d="M332.793 21.9092V9.16113H340.549V43.0918H332.793V29.374H323.099V43.0918H315.343V9.16113H323.099V21.9092H332.793ZM333.293 22.4092H322.599V9.66113H315.843V42.5918H322.599V28.874H333.293V42.5918H340.049V9.66113H333.293V22.4092Z" fill="#00A499"/>
<path d="M297.404 29.0684H308.553V22.7969H297.404V16.126H309.765V9.66113H290.648V42.5918H292.572V43.0918H290.148V9.16113H310.265V16.626H297.904V22.2969H309.053V29.5684H297.904V35.627H310.507V43.0918H292.572V42.5918H310.007V36.127H297.404V29.0684Z" fill="#00A499"/>
<path d="M285.294 20.7949C285.294 14.631 280.338 9.66113 273.918 9.66113H261.573V42.5918H268.328V31.9277H273.918V32.4277H268.828V43.0918H261.073V9.16113H273.918C280.607 9.16113 285.794 14.3481 285.794 20.7949L285.79 21.0957C285.631 27.4021 280.503 32.4277 273.918 32.4277V31.9277C280.338 31.9277 285.294 26.9587 285.294 20.7949ZM278.038 20.7949C278.038 18.3228 276.293 16.4316 273.918 16.4316V15.9316C276.599 15.9316 278.538 18.0773 278.538 20.7949C278.538 23.5123 276.599 25.6572 273.918 25.6572H268.328V15.9316H273.918V16.4316H268.828V25.1572H273.918C276.219 25.1572 277.929 23.3829 278.033 21.0244L278.038 20.7949Z" fill="#00A499"/>
<path d="M248.939 16.126H256.695V9.66113H234.429V16.126H242.184V42.5918H248.939V16.126ZM249.439 43.0918H241.684V16.626H233.929V9.16113H257.195V16.626H249.439V43.0918Z" fill="#00A499"/>
<path d="M199.494 9.16113V28.0654L211.612 9.16113H217.429V43.0918H209.674V24.1875L197.556 43.0918H191.738V9.16113H199.494ZM192.238 42.5918H197.282L210.174 22.4814V42.5918H216.929V9.66113H211.886L198.994 29.7715V9.66113H192.238V42.5918ZM212.34 0V6.30176H197.798V0H212.34ZM198.298 5.80176H211.84V0.5H198.298V5.80176Z" fill="#00A499"/>
<path d="M185.456 9.16113V43.0918H177.7V9.16113H185.456ZM174.292 31.458C174.292 25.2944 169.336 20.3254 162.917 20.3252H157.327V9.66113H150.571V42.5918H162.917V43.0918H150.071V9.16113H157.827V19.8252H162.917C169.606 19.8254 174.792 25.0115 174.792 31.458C174.792 37.8042 169.766 42.9295 163.229 43.0879L162.917 43.0918V42.5918C169.337 42.5916 174.292 37.6218 174.292 31.458ZM178.2 42.5918H184.956V9.66113H178.2V42.5918ZM167.037 31.458C167.037 29.0635 165.399 27.215 163.138 27.1016L162.917 27.0957V26.5957C165.598 26.5959 167.537 28.7408 167.537 31.458C167.537 34.1754 165.598 36.321 162.917 36.3213H157.327V26.5957H162.917V27.0957H157.827V35.8213H162.917C165.218 35.8211 166.927 34.0467 167.031 31.6885L167.037 31.458Z" fill="#00A499"/>
<path d="M136.031 21.9092V9.16113H143.787V43.0918H136.031V29.374H126.337V43.0918H118.581V9.16113H126.337V21.9092H136.031ZM136.531 22.4092H125.837V9.66113H119.081V42.5918H125.837V28.874H136.531V42.5918H143.287V9.66113H136.531V22.4092Z" fill="#00A499"/>
<path d="M103.285 42.5918V43.0918H86.8525V42.5918H103.285ZM113.497 32.4277C113.497 28.2964 111.416 24.9745 108.134 23.1719L107.665 22.9141L107.953 22.4639C108.685 21.3197 109.135 20.0062 109.135 18.6133C109.135 13.4592 104.948 9.66113 99.2129 9.66113H85.4141V42.5918H86.8525V43.0918H84.9141V9.16113H99.2129C105.175 9.16113 109.635 13.1359 109.635 18.6133C109.635 20.1158 109.15 21.5216 108.375 22.7334C111.816 24.6238 113.997 28.1139 113.997 32.4277C113.997 38.3444 109.721 42.805 103.857 43.0781L103.285 43.0918V42.5918C109.166 42.5917 113.497 38.2576 113.497 32.4277ZM106.242 31.9434C106.242 29.8302 105.196 28.1719 102.618 28.0703L102.364 28.0654V27.5654C103.852 27.5655 104.971 28.0258 105.712 28.8525C106.444 29.6696 106.742 30.7743 106.742 31.9434C106.742 33.1123 106.443 34.2176 105.704 35.0352C104.956 35.8618 103.825 36.3213 102.315 36.3213H92.1699V27.5654H102.364V28.0654H92.6699V35.8213H102.315C104.951 35.8213 106.096 34.3296 106.229 32.3457L106.242 31.9434ZM101.879 19.0977C101.879 17.4983 100.812 16.4316 99.2129 16.4316V15.9316C100.126 15.9316 100.927 16.2386 101.5 16.8115C102.073 17.3844 102.379 18.1844 102.379 19.0977C102.379 20.0113 101.983 20.9692 101.249 21.6465L101.105 21.7793H92.1699V15.9316H99.2129V16.4316H92.6699V21.2793H100.91C101.54 20.6976 101.879 19.8732 101.879 19.0977Z" fill="#00A499"/>
<path d="M81.5137 43.0918H73.0303L71.4795 37.7598H59.5557L58.0039 43.0918H49.5215L60.5732 9.16113H70.4619L81.5137 43.0918ZM50.2109 42.5918H57.6289L59.1797 37.2598H71.8545L71.96 37.6201L73.4062 42.5918H80.8242L70.0986 9.66113H60.9365L50.2109 42.5918ZM69.9668 30.9893H61.0684L65.5176 15.873L69.9668 30.9893ZM61.7363 30.4893H69.2988L65.5176 17.6436L61.7363 30.4893Z" fill="#00A499"/>
<path d="M31.8945 16.626V29.3252C31.8945 41.4432 24.7695 43.7701 18.5166 43.1885V35.918C21.8974 36.3405 24.0044 35.3528 24.1328 30.1348L24.1396 29.6162V9.16113H46.1455V43.0918H38.3896V16.626H31.8945ZM38.8896 42.5918H45.6455V9.66113H24.6396V29.6162C24.6396 32.4832 24.1061 34.3506 22.9805 35.4199C21.9618 36.3875 20.5715 36.5958 19.0166 36.4707V42.7256C21.9377 42.927 24.9381 42.4446 27.2402 40.627C29.6451 38.728 31.3945 35.2872 31.3945 29.3252V16.126H38.8896V42.5918Z" fill="#00A499"/>
<path d="M7.35645 16.126H18.9893V9.66113H0.600586V42.5918H7.35645V16.126ZM7.85645 43.0918H0.100586V9.16113H19.4893V16.626H7.85645V43.0918Z" fill="#00A499"/>
</svg>
