<svg width="361" height="38" viewBox="0 0 361 38" fill="none" xmlns="http://www.w3.org/2000/svg">
<path d="M360.516 26.854V34.6099H352.76V26.854H360.516ZM353.26 34.1099H360.016V27.354H353.26V34.1099ZM361 0.678722V10.3732L359.546 22.4916H353.729L352.275 10.3732V0.678722H361ZM352.775 10.3459L354.173 21.9916H359.102L360.5 10.3459V1.17873H352.775V10.3459Z" fill="#00A499"/>
<path d="M347.172 17.6448C347.172 12.797 345.508 8.74125 342.181 5.4454C338.851 2.14696 334.81 0.500008 330.027 0.500008C325.244 0.500072 321.203 2.14704 317.873 5.4454C314.546 8.74129 312.883 12.7969 312.883 17.6448C312.883 22.4926 314.546 26.5475 317.873 29.8433C321.203 33.1416 325.244 34.7886 330.027 34.7887V35.2887L329.569 35.2838C324.855 35.1811 320.839 33.4858 317.521 30.1987C314.203 26.9117 312.492 22.8817 312.388 18.1087L312.383 17.6448C312.383 12.8237 313.991 8.7453 317.205 5.41024L317.521 5.08993C320.946 1.69687 325.115 6.46112e-05 330.027 0C334.939 0 339.107 1.69687 342.533 5.08993C345.958 8.48304 347.672 12.6682 347.672 17.6448L347.668 18.0433C347.587 22.1451 346.264 25.7772 343.697 28.9389L347.138 32.8648L341.419 37.6149L337.832 33.5435C335.343 34.7069 332.741 35.2887 330.027 35.2887V34.7887C332.667 34.7887 335.197 34.2231 337.62 33.0904L337.959 32.9322L341.472 36.9205L346.424 32.8081L343.043 28.9507L343.308 28.6235C345.885 25.4503 347.172 21.7973 347.172 17.6448ZM339.916 17.6448C339.916 14.6718 338.962 12.2475 337.055 10.3732C335.181 8.49913 332.838 7.56165 330.027 7.56165C327.216 7.56171 324.856 8.49898 322.95 10.3732C321.075 12.2475 320.139 14.6719 320.139 17.6448L320.15 18.1956C320.26 20.9182 321.193 23.1584 322.95 24.9154C324.737 26.6726 326.923 27.6055 329.505 27.7153L330.027 27.727C330.867 27.727 331.692 27.6299 332.5 27.436L329.058 23.558L334.778 18.8079L338.51 23.0736C339.389 21.5892 339.855 19.9057 339.91 18.0237L339.916 17.6448ZM340.416 17.6448C340.416 19.7602 339.927 21.6591 338.94 23.3275L338.589 23.9223L334.721 19.5032L329.775 23.6117L333.426 27.728L332.616 27.9223C331.769 28.1255 330.906 28.227 330.027 28.227C327.092 28.227 324.605 27.243 322.6 25.2719L322.596 25.269C320.616 23.2893 319.639 20.7325 319.639 17.6448C319.639 14.5569 320.616 11.9995 322.596 10.0197L322.6 10.0168C324.605 8.04564 327.092 7.0617 330.027 7.06164C332.96 7.06164 335.432 8.04473 337.406 10.0168C339.419 11.996 340.416 14.5542 340.416 17.6448Z" fill="#00A499"/>
<path d="M292.976 10.1799C292.976 9.34083 293.292 8.6257 293.903 8.06361L294.029 7.95325C294.766 7.33394 295.787 7.06171 297.015 7.06164C298.41 7.06164 299.551 7.3933 300.341 8.14466C301.035 8.80454 301.392 9.72556 301.472 10.8429H308.235C308.139 7.45383 307.053 4.94668 305.03 3.24224C302.869 1.42041 300.207 0.500008 297.015 0.500008C294.017 0.500099 291.463 1.35502 289.331 3.05376L289.332 3.05474C287.269 4.72282 286.22 7.0749 286.22 10.1799C286.22 11.1719 286.345 12.0945 286.59 12.9504C286.839 13.7896 287.114 14.4933 287.414 15.0667C287.735 15.6219 288.212 16.1941 288.857 16.7796C289.526 17.3531 290.077 17.7931 290.512 18.1038C290.961 18.4031 291.64 18.7596 292.562 19.1732C293.486 19.5554 294.176 19.8439 294.63 20.0384C294.851 20.1173 295.134 20.2165 295.479 20.3343L296.737 20.7572L296.742 20.7591C297.681 21.083 298.401 21.3439 298.897 21.5423C299.406 21.7458 299.958 22.0144 300.554 22.3451C301.177 22.6915 301.67 23.0954 301.987 23.5717H301.986C302.305 24.0177 302.459 24.5368 302.459 25.1088C302.459 26.1402 302.034 26.961 301.183 27.4956C300.37 28.0055 299.216 28.227 297.791 28.227C296.07 28.227 294.704 27.9157 293.797 27.1977L293.788 27.1909C293.004 26.543 292.599 25.603 292.511 24.4457H285.746C285.846 27.8269 286.977 30.3312 289.087 32.0376L289.522 32.3687C291.737 33.9733 294.484 34.7887 297.791 34.7887V35.2887L297.119 35.2769C293.798 35.1652 291.016 34.2157 288.774 32.4283C286.415 30.5217 285.236 27.6941 285.236 23.9457H292.992C292.992 25.2383 293.363 26.1921 294.106 26.8061C294.785 27.3433 295.81 27.6452 297.182 27.7124L297.791 27.727C300.57 27.7269 301.959 26.8538 301.959 25.1088C301.959 24.6846 301.86 24.3099 301.662 23.9848L301.571 23.849C301.345 23.5097 300.995 23.1955 300.521 22.9056L300.312 22.7826C299.875 22.5402 299.466 22.3341 299.084 22.1644L298.712 22.0072C298.227 21.8133 297.516 21.5549 296.579 21.2318C296.094 21.0702 295.674 20.9282 295.318 20.807L294.446 20.5042L292.361 19.6322C291.658 19.317 291.083 19.0284 290.635 18.7679L290.228 18.5169C289.776 18.1938 289.21 17.741 288.532 17.1595C287.938 16.6223 287.468 16.0853 287.122 15.5481L286.981 15.3176C286.739 14.8571 286.514 14.3239 286.308 13.718L286.108 13.0881C285.882 12.2965 285.756 11.4552 285.727 10.5646L285.72 10.1799C285.72 6.94831 286.82 4.44341 289.017 2.66606C291.247 0.888956 293.913 9.07334e-05 297.015 0C300.311 0 303.091 0.953789 305.353 2.8604C307.615 4.767 308.745 7.59452 308.745 11.343H300.99C300.99 8.82236 299.664 7.56165 297.015 7.56165C295.852 7.56172 294.963 7.82036 294.35 8.33705L294.144 8.52553C293.699 8.97792 293.476 9.52958 293.476 10.1799L293.481 10.3527C293.527 11.2106 293.912 11.9128 294.64 12.4582C295.447 13.0399 296.66 13.6207 298.275 14.2024C301.539 15.3334 303.689 16.2066 304.723 16.8206C308.018 18.7594 309.683 21.5222 309.715 25.1088C309.715 28.3726 308.584 30.8941 306.322 32.6714L305.891 32.9878C303.702 34.5215 301.002 35.2886 297.791 35.2887V34.7887C301.128 34.7886 303.859 33.9397 306.017 32.2749C308.137 30.6069 309.214 28.2435 309.215 25.1137C309.184 21.7159 307.626 19.1083 304.469 17.2513L304.467 17.2503C303.483 16.6662 301.382 15.8083 298.111 14.675L298.106 14.6731C296.474 14.0853 295.211 13.485 294.348 12.8635L294.34 12.8576C293.444 12.1854 292.977 11.2804 292.976 10.1799Z" fill="#00A499"/>
<path d="M282.06 17.6448C282.06 12.7969 280.397 8.74128 277.07 5.4454C273.74 2.14705 269.699 0.500098 264.916 0.500008C260.133 0.500008 256.092 2.14696 252.762 5.4454C249.435 8.74126 247.772 12.7969 247.772 17.6448C247.772 22.4925 249.435 26.5475 252.762 29.8433C256.092 33.1417 260.133 34.7887 264.916 34.7887V35.2887L264.457 35.2838C259.896 35.1843 255.988 33.5936 252.734 30.5122L252.41 30.1987C249.092 26.9117 247.38 22.8818 247.276 18.1087L247.272 17.6448C247.272 12.8237 248.879 8.74527 252.094 5.41024L252.41 5.08993C255.836 1.6969 260.005 0 264.916 0L265.374 0.00488289C270.088 0.107623 274.104 1.80286 277.422 5.08993C280.848 8.483 282.56 12.6684 282.56 17.6448L282.555 18.1087C282.452 22.8816 280.741 26.9117 277.422 30.1987L277.099 30.5122C273.736 33.6966 269.675 35.2886 264.916 35.2887V34.7887C269.699 34.7886 273.74 33.1416 277.07 29.8433C280.397 26.5475 282.06 22.4925 282.06 17.6448ZM274.804 17.6448C274.804 14.8576 273.966 12.5531 272.291 10.7316L271.945 10.3732C270.188 8.61612 268.019 7.68324 265.438 7.57337L264.916 7.56165C262.105 7.56165 259.746 8.49905 257.839 10.3732C255.965 12.2475 255.028 14.6718 255.028 17.6448L255.038 18.1956C255.148 20.9183 256.082 23.1583 257.839 24.9154C259.627 26.6724 261.811 27.6054 264.394 27.7153L264.916 27.727C267.728 27.7269 270.071 26.7896 271.945 24.9154C273.732 23.1584 274.682 20.9183 274.794 18.1956L274.804 17.6448ZM275.304 17.6448C275.304 20.7336 274.309 23.2892 272.297 25.268C270.323 27.2421 267.851 28.2269 264.916 28.227C261.981 28.227 259.494 27.2432 257.489 25.2719L257.486 25.269C255.506 23.2892 254.528 20.7326 254.528 17.6448C254.528 14.5568 255.506 11.9995 257.486 10.0197L257.489 10.0168C259.494 8.04548 261.981 7.06164 264.916 7.06164C267.85 7.06173 270.322 8.0446 272.295 10.0168L272.661 10.3947C274.429 12.3179 275.304 14.7473 275.304 17.6448Z" fill="#00A499"/>
<path d="M220.826 34.1099V34.6099H204.394V34.1099H220.826ZM231.039 23.9457C231.039 21.8947 230.558 20.0778 229.606 18.4817C228.651 16.8791 227.343 15.6162 225.674 14.6887L225.21 14.4309L225.494 13.9836C226.289 12.7302 226.677 11.4484 226.677 10.131C226.677 7.55445 225.748 5.44482 223.884 3.76471L223.882 3.76178C222.014 2.04741 219.651 1.17873 216.754 1.17873H202.955V34.1099H204.394V34.6099H202.455V0.678722H216.754C219.76 0.678722 222.248 1.58395 224.219 3.39361C226.191 5.17093 227.177 7.41661 227.177 10.131L227.172 10.3967C227.122 11.7241 226.704 13.009 225.916 14.2512C227.661 15.2206 229.034 16.5456 230.036 18.2259C231.038 19.9062 231.539 21.8129 231.539 23.9457L231.527 24.515C231.408 27.3327 230.394 29.6963 228.485 31.605L228.097 31.9683C226.128 33.7293 223.704 34.6099 220.826 34.6099V34.1099C223.775 34.1099 226.2 33.1527 228.135 31.2486C230.068 29.3136 231.039 26.8914 231.039 23.9457ZM223.783 23.4613C223.783 22.3707 223.499 21.4785 222.931 20.7855L222.814 20.6497C222.239 19.9833 221.35 19.629 220.15 19.5872L219.905 19.5833V19.0833C221.313 19.0833 222.449 19.4624 223.192 20.3226H223.191C223.933 21.1429 224.283 22.2056 224.283 23.4613C224.283 24.7214 223.93 25.7873 223.183 26.6088C222.411 27.4588 221.267 27.8393 219.857 27.8393H209.71V19.0833H219.905V19.5833H210.21V27.3393H219.857C221.099 27.3393 222.043 27.0264 222.688 26.4018L222.814 26.2729C223.42 25.6063 223.741 24.7405 223.779 23.6762L223.783 23.4613ZM219.421 10.6154C219.42 9.90871 219.235 9.32575 218.864 8.86635L218.694 8.6769C218.209 8.19217 217.562 7.94935 216.754 7.94935V7.44934C217.67 7.44934 218.452 7.72828 219.048 8.32338C219.642 8.91837 219.92 9.70068 219.921 10.6154C219.921 11.6291 219.538 12.4923 218.786 13.1692L218.643 13.2971H209.71V7.44934H216.754V7.94935H210.21V12.7971H218.451C219.097 12.2154 219.421 11.4879 219.421 10.6154Z" fill="#00A499"/>
<path d="M184.5 17.6448C184.5 12.797 182.838 8.74124 179.511 5.4454C176.181 2.14696 172.139 0.500008 167.356 0.500008C162.573 0.500034 158.532 2.14699 155.202 5.4454C151.875 8.74122 150.212 12.7971 150.212 17.6448C150.213 22.4924 151.875 26.5476 155.202 29.8433C158.532 33.1417 162.573 34.7886 167.356 34.7887V35.2887L166.898 35.2838C162.185 35.1811 158.169 33.4859 154.85 30.1987C151.532 26.9117 149.821 22.8817 149.717 18.1087L149.712 17.6448C149.712 12.8239 151.319 8.74522 154.534 5.41024L154.85 5.08993C158.276 1.69684 162.444 2.59622e-05 167.356 0C172.268 0 176.437 1.69681 179.862 5.08993C183.288 8.48304 185 12.6682 185 17.6448L184.995 18.1087C184.891 22.8817 183.181 26.9117 179.862 30.1987C176.437 33.5919 172.268 35.2887 167.356 35.2887V34.7887C172.139 34.7887 176.181 33.1417 179.511 29.8433C182.838 26.5475 184.5 22.4924 184.5 17.6448ZM177.245 17.6448C177.245 14.6718 176.291 12.2475 174.385 10.3732C172.51 8.49907 170.168 7.56165 167.356 7.56165C164.545 7.56167 162.186 8.49895 160.279 10.3732C158.405 12.2475 157.467 14.6718 157.467 17.6448L157.479 18.1956C157.589 20.9183 158.522 23.1584 160.279 24.9154C162.066 26.6726 164.252 27.6055 166.835 27.7153L167.356 27.727C170.168 27.727 172.51 26.7896 174.385 24.9154C176.172 23.1584 177.122 20.9183 177.233 18.1956L177.245 17.6448ZM177.745 17.6448C177.745 20.7338 176.749 23.2892 174.737 25.268L174.738 25.269C172.764 27.243 170.291 28.227 167.356 28.227C164.421 28.227 161.934 27.2432 159.928 25.2719L159.925 25.269C157.946 23.2892 156.967 20.7326 156.967 17.6448C156.967 14.5568 157.946 11.9995 159.925 10.0197L159.928 10.0168C161.934 8.04544 164.421 7.06166 167.356 7.06164C170.29 7.06164 172.762 8.04468 174.735 10.0168C176.749 11.996 177.745 14.5542 177.745 17.6448Z" fill="#00A499"/>
<path d="M130.508 0.678722V15.4143L140.882 0.678722H149.704L138.264 17.2083L150.189 34.6099H141.367L130.508 18.9046V34.6099H122.753V0.678722H130.508ZM123.253 34.1099H130.008V17.302L141.628 34.1099H149.24L137.658 17.2063L137.853 16.9231L148.749 1.17873H141.141L130.008 16.9934V1.17873H123.253V34.1099Z" fill="#00A499"/>
<path d="M106.522 34.1099V34.6099H96.1002V34.1099H106.522ZM117.897 22.976C117.897 19.8781 116.804 17.2597 114.605 15.092C112.408 12.9256 109.724 11.8431 106.522 11.843H100.932V1.17873H94.1763V34.1099H96.1002V34.6099H93.6763V0.678722H101.432V11.343H106.522C109.85 11.343 112.662 12.4738 114.956 14.7356C117.25 16.9976 118.397 19.7446 118.397 22.976C118.397 26.2075 117.25 28.9552 114.956 31.2173L114.519 31.6275C112.455 33.4831 109.995 34.4726 107.139 34.5963L106.522 34.6099V34.1099C109.724 34.1098 112.408 33.0273 114.605 30.8609C116.804 28.6931 117.897 26.0741 117.897 22.976ZM110.642 22.976C110.642 21.8249 110.302 20.8438 109.62 20.0335L109.478 19.8743C108.751 19.0868 107.84 18.6678 106.744 18.6185L106.522 18.6136V18.1136C107.85 18.1137 108.972 18.5867 109.847 19.5345C110.714 20.4742 111.142 21.6326 111.142 22.976C111.142 24.3193 110.714 25.4777 109.847 26.4174C108.972 27.3652 107.85 27.8392 106.522 27.8393H100.932V18.1136H106.522V18.6136H101.432V27.3393H106.522C107.718 27.3392 108.703 26.9186 109.478 26.0785C110.205 25.2909 110.592 24.3329 110.638 23.2045L110.642 22.976Z" fill="#00A499"/>
<path d="M73.1408 8.14369V20.8431C73.1408 23.1698 72.8659 25.2221 72.3166 26.9995C71.7996 28.7445 71.1051 30.1344 70.2326 31.1685C69.3924 32.1702 68.358 32.9618 67.13 33.5435C65.9344 34.1251 64.7386 34.4972 63.543 34.6588C62.3798 34.8203 61.1197 34.8358 59.7627 34.7066V27.436C61.6691 27.6621 63.0748 27.3387 63.9796 26.4662C64.9166 25.5937 65.3849 23.8162 65.3849 21.1341V0.678722H87.392V34.6099H79.6361V8.14369H73.1408ZM80.1361 34.1099H86.892V1.17873H65.8849V21.1341C65.8849 22.5005 65.7667 23.6623 65.5177 24.6068C65.2692 25.549 64.882 26.3096 64.3204 26.8325L64.3194 26.8315C63.3619 27.7505 61.9762 28.0971 60.2627 27.9829V34.2457C61.4139 34.3283 62.4841 34.3012 63.4747 34.1636L63.4766 34.1627C64.6142 34.0089 65.7588 33.6549 66.9112 33.0943L66.9161 33.0914C68.0816 32.5393 69.0577 31.7916 69.8498 30.8472L69.8507 30.8462C70.6661 29.8798 71.3333 28.5581 71.8371 26.8579L71.8391 26.852L71.9357 26.5268C72.4034 24.8819 72.6408 22.9889 72.6408 20.8431V7.64368H80.1361V34.1099Z" fill="#00A499"/>
<path d="M58.539 17.6448C58.539 12.797 56.8759 8.74125 53.5487 5.4454C50.2189 2.14696 46.1771 0.500008 41.3942 0.500008C36.6114 0.500065 32.5705 2.14704 29.2407 5.4454C25.9134 8.74129 24.2504 12.7969 24.2504 17.6448C24.2505 22.4926 25.9135 26.5475 29.2407 29.8433C32.5705 33.1416 36.6114 34.7886 41.3942 34.7887V35.2887L40.9362 35.2838C36.2227 35.1811 32.2066 33.4858 28.8882 30.1987C25.5699 26.9117 23.859 22.8817 23.7553 18.1087L23.7504 17.6448C23.7504 12.8237 25.3579 8.7453 28.5727 5.41024L28.8882 5.08993C32.3135 1.69687 36.4824 5.7145e-05 41.3942 0C46.3061 0 50.4749 1.69686 53.9003 5.08993C57.3257 8.48304 59.039 12.6682 59.039 17.6448L59.0332 18.1087C58.9295 22.8818 57.2186 26.9117 53.9003 30.1987C50.4749 33.5918 46.3061 35.2887 41.3942 35.2887V34.7887C46.1771 34.7887 50.2189 33.1417 53.5487 29.8433C56.8757 26.5475 58.5389 22.4924 58.539 17.6448ZM51.2831 17.6448C51.2831 14.6718 50.3293 12.2475 48.4227 10.3732C46.5484 8.49912 44.2055 7.56165 41.3942 7.56165C38.5829 7.5617 36.2235 8.49898 34.317 10.3732C32.4428 12.2475 31.5064 14.6719 31.5064 17.6448L31.5171 18.1956C31.627 20.9182 32.56 23.1584 34.317 24.9154C36.1044 26.6726 38.29 27.6055 40.8727 27.7153L41.3942 27.727C44.2055 27.727 46.5484 26.7896 48.4227 24.9154C50.21 23.1584 51.1596 20.9183 51.2713 18.1956L51.2831 17.6448ZM51.7831 17.6448C51.783 20.7338 50.7866 23.2892 48.7752 25.268L48.7762 25.269C46.802 27.243 44.3292 28.227 41.3942 28.227C38.4594 28.227 35.9726 27.243 33.9673 25.2719L33.9634 25.269C31.9838 23.2893 31.0065 20.7325 31.0064 17.6448C31.0064 14.5569 31.9837 11.9995 33.9634 10.0197L33.9673 10.0168C35.9726 8.04565 38.4594 7.06169 41.3942 7.06164C44.3278 7.06164 46.7996 8.04472 48.7733 10.0168C50.7866 11.996 51.7831 14.5542 51.7831 17.6448Z" fill="#00A499"/>
<path d="M15.012 7.64368H22.767V1.17873H0.500008V7.64368H8.25599V34.1099H15.012V7.64368ZM15.512 34.6099H7.75599V8.14369H0V0.678722H23.267V8.14369H15.512V34.6099Z" fill="#00A499"/>
</svg>
