<svg width="362" height="38" viewBox="0 0 362 38" fill="none" xmlns="http://www.w3.org/2000/svg">
<path d="M361.013 26.9258V34.6816H353.257V26.9258H361.013ZM353.757 34.1816H360.513V27.4258H353.757V34.1816ZM361.497 0.750977V10.4453L360.043 22.5635H354.227L352.772 10.4453V0.750977H361.497ZM353.272 10.418L354.67 22.0635H359.599L360.997 10.418V1.25098H353.272V10.418Z" fill="#00A499"/>
<path d="M347.669 17.7168C347.669 12.869 346.006 8.81338 342.679 5.51758C339.349 2.21919 335.307 0.572266 330.524 0.572266C325.742 0.57233 321.701 2.21927 318.371 5.51758C315.044 8.81341 313.381 12.8689 313.381 17.7168C313.381 22.5645 315.044 26.6193 318.371 29.915C321.701 33.2134 325.742 34.8603 330.524 34.8604V35.3604L330.066 35.3555C325.353 35.2528 321.337 33.5575 318.019 30.2705C314.7 26.9835 312.989 22.9536 312.886 18.1807L312.881 17.7168C312.881 12.8957 314.488 8.81742 317.703 5.48242L318.019 5.16211C321.444 1.76911 325.613 0.0723302 330.524 0.0722656C335.436 0.0722656 339.605 1.7691 343.03 5.16211C346.456 8.55517 348.169 12.7403 348.169 17.7168L348.165 18.1152C348.085 22.217 346.761 25.8491 344.194 29.0107L347.636 32.9365L341.916 37.6865L338.329 33.6152C335.841 34.7786 333.239 35.3604 330.524 35.3604V34.8604C333.165 34.8604 335.694 34.2948 338.117 33.1621L338.456 33.0039L341.97 36.9922L346.921 32.8799L343.54 29.0225L343.806 28.6953C346.382 25.5221 347.669 21.8692 347.669 17.7168ZM340.413 17.7168C340.413 14.7438 339.459 12.3196 337.553 10.4453C335.679 8.57126 333.336 7.63379 330.524 7.63379C327.713 7.63385 325.354 8.57111 323.447 10.4453C321.573 12.3196 320.637 14.7439 320.637 17.7168L320.647 18.2676C320.757 20.9902 321.69 23.2303 323.447 24.9873C325.235 26.7444 327.42 27.6773 330.003 27.7871L330.524 27.7988C331.365 27.7988 332.189 27.7017 332.997 27.5078L329.556 23.6299L335.275 18.8799L339.008 23.1455C339.886 21.6611 340.352 19.9777 340.407 18.0957L340.413 17.7168ZM340.913 17.7168C340.913 19.8321 340.425 21.7311 339.438 23.3994L339.086 23.9941L335.219 19.5752L330.272 23.6836L333.924 27.7998L333.113 27.9941C332.267 28.1973 331.403 28.2988 330.524 28.2988C327.59 28.2988 325.103 27.3149 323.098 25.3438L323.094 25.3408C321.114 23.3611 320.137 20.8045 320.137 17.7168C320.137 14.6289 321.114 12.0716 323.094 10.0918L323.098 10.0889C325.103 8.11778 327.59 7.13385 330.524 7.13379C333.458 7.13379 335.93 8.11687 337.903 10.0889C339.917 12.0681 340.913 14.6262 340.913 17.7168Z" fill="#00A499"/>
<path d="M293.475 10.252C293.475 9.41295 293.791 8.69783 294.401 8.13574L294.527 8.02539C295.264 7.40608 296.285 7.13386 297.513 7.13379C298.909 7.13379 300.049 7.46545 300.839 8.2168C301.533 8.87666 301.89 9.79767 301.97 10.915H308.733C308.637 7.52597 307.55 5.01887 305.528 3.31445C303.367 1.49265 300.705 0.572266 297.513 0.572266C294.515 0.572356 291.962 1.42727 289.829 3.12598L289.83 3.12695C287.768 4.79501 286.719 7.14705 286.719 10.252C286.719 11.244 286.843 12.1666 287.088 13.0225C287.337 13.8617 287.612 14.5654 287.912 15.1387C288.234 15.694 288.71 16.2661 289.355 16.8516C290.025 17.425 290.576 17.865 291.01 18.1758C291.46 18.475 292.138 18.8315 293.061 19.2451C293.984 19.6273 294.674 19.9159 295.128 20.1104C295.349 20.1893 295.632 20.2885 295.978 20.4062L297.235 20.8291L297.24 20.8311C298.179 21.1549 298.899 21.4158 299.396 21.6143C299.904 21.8177 300.457 22.0863 301.052 22.417C301.675 22.7634 302.168 23.1673 302.485 23.6436H302.484C302.803 24.0896 302.957 24.6087 302.957 25.1807C302.957 26.212 302.532 27.0329 301.681 27.5674C300.868 28.0773 299.715 28.2988 298.289 28.2988C296.568 28.2988 295.202 27.9875 294.295 27.2695L294.286 27.2627C293.502 26.6149 293.097 25.6748 293.009 24.5176H286.244C286.345 27.8987 287.475 30.4029 289.585 32.1094L290.021 32.4404C292.235 34.045 294.982 34.8604 298.289 34.8604V35.3604L297.617 35.3486C294.296 35.2369 291.514 34.2874 289.272 32.5C286.914 30.5934 285.734 27.7659 285.734 24.0176H293.49C293.49 25.3102 293.861 26.2639 294.604 26.8779C295.283 27.4152 296.308 27.717 297.68 27.7842L298.289 27.7988C301.068 27.7988 302.457 26.9256 302.457 25.1807C302.457 24.7565 302.358 24.3818 302.16 24.0566L302.069 23.9209C301.843 23.5816 301.493 23.2674 301.02 22.9775L300.81 22.8545C300.373 22.6121 299.964 22.406 299.582 22.2363L299.21 22.0791C298.725 21.8852 298.014 21.6268 297.077 21.3037C296.592 21.1421 296.172 21.0001 295.816 20.8789L294.944 20.5762L292.859 19.7041C292.156 19.389 291.581 19.1004 291.133 18.8398L290.727 18.5889C290.274 18.2657 289.709 17.813 289.03 17.2314C288.437 16.6943 287.966 16.1573 287.62 15.6201L287.479 15.3896C287.237 14.9291 287.013 14.396 286.807 13.79L286.606 13.1602C286.38 12.3686 286.254 11.5273 286.226 10.6367L286.219 10.252C286.219 7.02047 287.318 4.5156 289.516 2.73828C291.745 0.961207 294.411 0.0723564 297.513 0.0722656C300.809 0.0722656 303.589 1.02604 305.851 2.93262C308.112 4.83919 309.243 7.66666 309.243 11.415H301.488C301.488 8.89448 300.163 7.63379 297.513 7.63379C296.35 7.63386 295.462 7.89249 294.848 8.40918L294.643 8.59766C294.197 9.05004 293.975 9.60169 293.975 10.252L293.979 10.4248C294.025 11.2827 294.41 11.9849 295.138 12.5303C295.946 13.1119 297.158 13.6928 298.773 14.2744C302.037 15.4054 304.187 16.2786 305.221 16.8926C308.516 18.8314 310.18 21.5941 310.213 25.1807C310.213 28.4444 309.082 30.9658 306.82 32.7432L306.389 33.0596C304.2 34.5932 301.5 35.3603 298.289 35.3604V34.8604C301.626 34.8603 304.357 34.0115 306.515 32.3467C308.635 30.6787 309.712 28.3153 309.713 25.1855C309.682 21.7878 308.124 19.1802 304.967 17.3232L304.965 17.3223C303.981 16.7382 301.88 15.8804 298.609 14.7471L298.604 14.7451C296.972 14.1573 295.709 13.5571 294.846 12.9355L294.838 12.9297C293.942 12.2575 293.475 11.3525 293.475 10.252Z" fill="#00A499"/>
<path d="M282.559 17.7168C282.559 12.869 280.896 8.8134 277.568 5.51758C274.239 2.21928 270.198 0.572355 265.415 0.572266C260.632 0.572266 256.591 2.21919 253.261 5.51758C249.934 8.81339 248.271 12.869 248.271 17.7168C248.271 22.5644 249.934 26.6193 253.261 29.915C256.591 33.2134 260.632 34.8604 265.415 34.8604V35.3604L264.956 35.3555C260.395 35.256 256.487 33.6653 253.232 30.584L252.909 30.2705C249.591 26.9835 247.879 22.9537 247.775 18.1807L247.771 17.7168C247.771 12.8958 249.378 8.8174 252.593 5.48242L252.909 5.16211C256.335 1.76914 260.503 0.0722656 265.415 0.0722656L265.873 0.0771484C270.586 0.179886 274.603 1.8751 277.921 5.16211C281.346 8.55513 283.059 12.7404 283.059 17.7168L283.054 18.1807C282.95 22.9535 281.239 26.9836 277.921 30.2705L277.598 30.584C274.234 33.7683 270.173 35.3603 265.415 35.3604V34.8604C270.198 34.8603 274.239 33.2133 277.568 29.915C280.895 26.6193 282.558 22.5644 282.559 17.7168ZM275.303 17.7168C275.303 14.9296 274.465 12.6252 272.789 10.8037L272.443 10.4453C270.686 8.68825 268.517 7.75538 265.937 7.64551L265.415 7.63379C262.604 7.63379 260.244 8.57117 258.338 10.4453C256.464 12.3196 255.526 14.7438 255.526 17.7168L255.537 18.2676C255.647 20.9902 256.581 23.2302 258.338 24.9873C260.125 26.7443 262.31 27.6772 264.893 27.7871L265.415 27.7988C268.226 27.7987 270.569 26.8615 272.443 24.9873C274.231 23.2302 275.18 20.9902 275.292 18.2676L275.303 17.7168ZM275.803 17.7168C275.803 20.8056 274.807 23.3611 272.796 25.3398C270.822 27.3139 268.35 28.2987 265.415 28.2988C262.48 28.2988 259.993 27.315 257.987 25.3438L257.984 25.3408C256.005 23.3611 255.026 20.8045 255.026 17.7168C255.026 14.6288 256.005 12.0716 257.984 10.0918L257.987 10.0889C259.993 8.11761 262.48 7.13379 265.415 7.13379C268.349 7.13388 270.82 8.11673 272.794 10.0889L273.159 10.4668C274.928 12.3899 275.803 14.8194 275.803 17.7168Z" fill="#00A499"/>
<path d="M221.325 34.1816V34.6816H204.894V34.1816H221.325ZM231.538 24.0176C231.538 21.9666 231.057 20.1497 230.105 18.5537C229.15 16.9511 227.842 15.6882 226.173 14.7607L225.709 14.5029L225.993 14.0557C226.788 12.8023 227.176 11.5205 227.176 10.2031C227.176 7.62659 226.247 5.51699 224.384 3.83691L224.381 3.83398C222.513 2.11964 220.151 1.25098 217.254 1.25098H203.455V34.1816H204.894V34.6816H202.955V0.750977H217.254C220.259 0.750977 222.748 1.65619 224.719 3.46582C226.69 5.24311 227.676 7.48876 227.676 10.2031L227.671 10.4688C227.622 11.7962 227.203 13.081 226.415 14.3232C228.16 15.2926 229.533 16.6176 230.535 18.2979C231.537 19.9782 232.038 21.8849 232.038 24.0176L232.026 24.5869C231.907 27.4045 230.893 29.7681 228.984 31.6768L228.597 32.04C226.627 33.8011 224.203 34.6816 221.325 34.6816V34.1816C224.275 34.1816 226.699 33.2244 228.634 31.3203C230.567 29.3854 231.538 26.9632 231.538 24.0176ZM224.282 23.5332C224.282 22.4426 223.999 21.5504 223.431 20.8574L223.313 20.7217C222.738 20.0553 221.85 19.7009 220.649 19.6592L220.404 19.6553V19.1553C221.813 19.1553 222.948 19.5343 223.691 20.3945H223.69C224.432 21.2149 224.782 22.2775 224.782 23.5332C224.782 24.7933 224.429 25.8592 223.683 26.6807C222.91 27.5306 221.767 27.9111 220.356 27.9111H210.21V19.1553H220.404V19.6553H210.71V27.4111H220.356C221.598 27.4111 222.542 27.0983 223.188 26.4736L223.313 26.3447C223.919 25.6781 224.241 24.8123 224.278 23.748L224.282 23.5332ZM219.92 10.6875C219.92 9.98082 219.734 9.39786 219.363 8.93848L219.193 8.74902C218.709 8.2643 218.062 8.02148 217.254 8.02148V7.52148C218.169 7.52148 218.952 7.80042 219.547 8.39551C220.142 8.99049 220.42 9.77278 220.42 10.6875C220.42 11.7012 220.037 12.5643 219.285 13.2412L219.143 13.3691H210.21V7.52148H217.254V8.02148H210.71V12.8691H218.95C219.596 12.2875 219.92 11.56 219.92 10.6875Z" fill="#00A499"/>
<path d="M185 17.7168C185 12.8691 183.338 8.81336 180.011 5.51758C176.681 2.21919 172.639 0.572266 167.856 0.572266C163.074 0.572291 159.032 2.21922 155.702 5.51758C152.375 8.81334 150.713 12.8691 150.713 17.7168C150.713 22.5643 152.375 26.6194 155.702 29.915C159.032 33.2134 163.074 34.8603 167.856 34.8604V35.3604L167.398 35.3555C162.685 35.2528 158.669 33.5576 155.351 30.2705C152.032 26.9835 150.321 22.9536 150.218 18.1807L150.213 17.7168C150.213 12.8959 151.82 8.81735 155.034 5.48242L155.351 5.16211C158.776 1.76907 162.945 0.0722916 167.856 0.0722656C172.768 0.0722656 176.937 1.76905 180.362 5.16211C183.788 8.55517 185.5 12.7403 185.5 17.7168L185.495 18.1807C185.391 22.9536 183.681 26.9835 180.362 30.2705C176.937 33.6636 172.768 35.3604 167.856 35.3604V34.8604C172.639 34.8604 176.681 33.2134 180.011 29.915C183.338 26.6194 185 22.5643 185 17.7168ZM177.745 17.7168C177.745 14.7438 176.791 12.3196 174.885 10.4453C173.011 8.5712 170.668 7.63379 167.856 7.63379C165.045 7.63381 162.686 8.57107 160.779 10.4453C158.905 12.3196 157.968 14.7439 157.968 17.7168L157.979 18.2676C158.089 20.9902 159.022 23.2303 160.779 24.9873C162.567 26.7445 164.752 27.6773 167.335 27.7871L167.856 27.7988C170.668 27.7988 173.011 26.8614 174.885 24.9873C176.672 23.2302 177.622 20.9902 177.733 18.2676L177.745 17.7168ZM178.245 17.7168C178.245 20.8057 177.249 23.3611 175.237 25.3398L175.238 25.3408C173.264 27.3148 170.791 28.2988 167.856 28.2988C164.921 28.2988 162.434 27.315 160.429 25.3438L160.426 25.3408C158.446 23.3611 157.468 20.8045 157.468 17.7168C157.468 14.6289 158.446 12.0716 160.426 10.0918L160.429 10.0889C162.434 8.11758 164.921 7.13381 167.856 7.13379C170.79 7.13379 173.262 8.11681 175.235 10.0889C177.249 12.0681 178.245 14.6262 178.245 17.7168Z" fill="#00A499"/>
<path d="M131.009 0.750977V15.4863L141.383 0.750977H150.204L138.765 17.2803L150.689 34.6816H141.867L131.009 18.9766V34.6816H123.254V0.750977H131.009ZM123.754 34.1816H130.509V17.374L142.129 34.1816H149.74L138.158 17.2783L138.354 16.9951L149.25 1.25098H141.642L130.509 17.0654V1.25098H123.754V34.1816Z" fill="#00A499"/>
<path d="M107.023 34.1816V34.6816H96.6016V34.1816H107.023ZM118.398 23.0479C118.398 19.95 117.305 17.3317 115.106 15.1641C112.909 12.9977 110.225 11.9151 107.023 11.915H101.434V1.25098H94.6777V34.1816H96.6016V34.6816H94.1777V0.750977H101.934V11.415H107.023C110.352 11.4151 113.163 12.5459 115.457 14.8076C117.751 17.0696 118.898 19.8166 118.898 23.0479C118.898 26.2793 117.751 29.027 115.457 31.2891L115.021 31.6992C112.956 33.5548 110.497 34.5443 107.641 34.668L107.023 34.6816V34.1816C110.225 34.1816 112.909 33.099 115.106 30.9326C117.305 28.7649 118.398 26.1459 118.398 23.0479ZM111.144 23.0479C111.143 21.8968 110.803 20.9158 110.121 20.1055L109.979 19.9463C109.252 19.1587 108.341 18.7397 107.245 18.6904L107.023 18.6855V18.1855C108.351 18.1856 109.473 18.6587 110.348 19.6064C111.215 20.5461 111.643 21.7045 111.644 23.0479C111.644 24.3912 111.215 25.5496 110.348 26.4893C109.473 27.4371 108.351 27.911 107.023 27.9111H101.434V18.1855H107.023V18.6855H101.934V27.4111H107.023C108.219 27.411 109.204 26.9904 109.979 26.1504C110.707 25.3627 111.093 24.4048 111.139 23.2764L111.144 23.0479Z" fill="#00A499"/>
<path d="M73.6426 8.21582V20.915C73.6426 23.2417 73.3677 25.294 72.8184 27.0713C72.3013 28.8163 71.6069 30.2062 70.7344 31.2402C69.8942 32.242 68.8598 33.0336 67.6318 33.6152C66.4363 34.1968 65.2405 34.5689 64.0449 34.7305C62.8818 34.892 61.6216 34.9075 60.2646 34.7783V27.5078C62.1711 27.7339 63.5767 27.4105 64.4814 26.5381C65.4185 25.6655 65.8867 23.8881 65.8867 21.2061V0.750977H87.8936V34.6816H80.1377V8.21582H73.6426ZM80.6377 34.1816H87.3936V1.25098H66.3867V21.2061C66.3867 22.5724 66.2685 23.7342 66.0195 24.6787C65.7711 25.6209 65.3838 26.3814 64.8223 26.9043L64.8213 26.9033C63.8638 27.8223 62.4781 28.1689 60.7646 28.0547V34.3174C61.9158 34.4 62.986 34.3729 63.9766 34.2354L63.9785 34.2344C65.1161 34.0806 66.2607 33.7266 67.4131 33.166L67.418 33.1631C68.5834 32.611 69.5595 31.8633 70.3516 30.9189L70.3525 30.918C71.1679 29.9516 71.8351 28.6299 72.3389 26.9297L72.3408 26.9238L72.4375 26.5986C72.9051 24.9537 73.1426 23.0608 73.1426 20.915V7.71582H80.6377V34.1816Z" fill="#00A499"/>
<path d="M59.041 17.7168C59.041 12.869 57.3779 8.81337 54.0508 5.51758C50.721 2.21919 46.6793 0.572266 41.8965 0.572266C37.1138 0.572323 33.0729 2.21927 29.7432 5.51758C26.4159 8.81341 24.7529 12.8689 24.7529 17.7168C24.753 22.5645 26.416 26.6193 29.7432 29.915C33.0729 33.2134 37.1138 34.8603 41.8965 34.8604V35.3604L41.4385 35.3555C36.7251 35.2528 32.709 33.5575 29.3906 30.2705C26.0724 26.9835 24.3615 22.9536 24.2578 18.1807L24.2529 17.7168C24.2529 12.8957 25.8604 8.81743 29.0752 5.48242L29.3906 5.16211C32.8159 1.7691 36.9847 0.0723228 41.8965 0.0722656C46.8083 0.0722656 50.977 1.76909 54.4023 5.16211C57.8277 8.55517 59.541 12.7403 59.541 17.7168L59.5352 18.1807C59.4314 22.9537 57.7207 26.9835 54.4023 30.2705C50.977 33.6635 46.8083 35.3604 41.8965 35.3604V34.8604C46.6793 34.8604 50.721 33.2134 54.0508 29.915C57.3777 26.6194 59.0409 22.5643 59.041 17.7168ZM51.7852 17.7168C51.7852 14.7438 50.8314 12.3196 48.9248 10.4453C47.0506 8.57125 44.7077 7.63379 41.8965 7.63379C39.0852 7.63384 36.7259 8.5711 34.8193 10.4453C32.9452 12.3196 32.0088 14.7439 32.0088 17.7168L32.0195 18.2676C32.1294 20.9902 33.0624 23.2303 34.8193 24.9873C36.6068 26.7444 38.7923 27.6773 41.375 27.7871L41.8965 27.7988C44.7077 27.7988 47.0506 26.8614 48.9248 24.9873C50.7122 23.2302 51.6617 20.9902 51.7734 18.2676L51.7852 17.7168ZM52.2852 17.7168C52.2851 20.8057 51.2887 23.3611 49.2773 25.3398L49.2783 25.3408C47.3042 27.3148 44.8314 28.2988 41.8965 28.2988C38.9617 28.2988 36.4749 27.3149 34.4697 25.3438L34.4658 25.3408C32.4862 23.3611 31.5089 20.8045 31.5088 17.7168C31.5088 14.6289 32.4861 12.0716 34.4658 10.0918L34.4697 10.0889C36.4749 8.11778 38.9617 7.13384 41.8965 7.13379C44.83 7.13379 47.3018 8.11686 49.2754 10.0889C51.2887 12.0681 52.2852 14.6262 52.2852 17.7168Z" fill="#00A499"/>
<path d="M15.5146 7.71582H23.2695V1.25098H1.00293V7.71582H8.75879V34.1816H15.5146V7.71582ZM16.0146 34.6816H8.25879V8.21582H0.50293V0.750977H23.7695V8.21582H16.0146V34.6816Z" fill="#00A499"/>
</svg>
