<svg width="30" height="29" viewBox="0 0 30 29" fill="none" xmlns="http://www.w3.org/2000/svg">
<path d="M28.1364 13.9119C28.1388 13.9119 28.1406 13.9119 28.143 13.9119C28.3104 13.9119 28.47 13.8441 28.5834 13.7252C28.6986 13.6045 28.7556 13.4427 28.7406 13.2792C28.1382 6.87422 22.8924 1.80154 16.266 1.21806C16.098 1.2053 15.9288 1.25808 15.804 1.37002C15.6792 1.48138 15.6096 1.63856 15.6114 1.8027C15.7158 10.3148 16.8774 13.793 28.1364 13.9119ZM28.1364 15.0882C16.8774 15.2071 15.7164 18.6853 15.612 27.1974C15.6102 27.3616 15.6798 27.5187 15.8046 27.6301C15.9162 27.7293 16.062 27.7844 16.212 27.7844C16.23 27.7844 16.2486 27.7838 16.2666 27.7821C22.893 27.1986 28.1388 22.1265 28.7406 15.721C28.7556 15.5574 28.6992 15.3956 28.5834 15.2749C28.4676 15.1543 28.3062 15.0946 28.1364 15.0882ZM13.6938 1.22096C7.08841 1.82126 1.85941 6.89278 1.26001 13.2803C1.24501 13.4439 1.30141 13.6057 1.41721 13.7263C1.53061 13.8452 1.69081 13.9125 1.85761 13.9125C1.86001 13.9125 1.86241 13.9125 1.86481 13.9125C13.0866 13.7878 14.2452 10.3113 14.3508 1.80502C14.3526 1.64088 14.2824 1.48312 14.1576 1.37176C14.0316 1.2604 13.863 1.20588 13.6938 1.22096ZM1.86421 15.0876C1.67761 15.0673 1.53121 15.1531 1.41661 15.2738C1.30141 15.3944 1.24441 15.5562 1.25941 15.7198C1.85881 22.1073 7.08841 27.1789 13.6938 27.7792C13.7124 27.7809 13.7316 27.7815 13.7502 27.7815C13.9002 27.7815 14.0454 27.727 14.157 27.6278C14.2818 27.5164 14.352 27.3587 14.3502 27.1945C14.2446 18.6888 13.0866 15.2123 1.86421 15.0876Z" fill="white"/>
</svg>
