<svg width="75" height="25" viewBox="0 0 75 25" fill="none" xmlns="http://www.w3.org/2000/svg">
<path d="M19.8862 19.4897C18.8118 20.5606 17.5252 21.406 16.105 21.9741C14.6849 22.5422 13.1611 22.8211 11.627 22.7937C10.0944 22.8052 8.57492 22.518 7.15713 21.9491C5.73934 21.3802 4.45169 20.5408 3.36935 19.4801C2.28701 18.4193 1.43168 17.1584 0.853283 15.7709C0.274885 14.3835 -0.0149852 12.8973 0.000596412 11.3991C-0.0149852 9.9009 0.274885 8.4147 0.853283 7.02723C1.43168 5.63977 2.28701 4.37885 3.36935 3.31809C4.45169 2.25733 5.73934 1.41799 7.15713 0.84906C8.57492 0.280133 10.0944 -0.00697714 11.627 0.00449185C13.1609 -0.00692442 14.6818 0.28001 16.1012 0.848599C17.5206 1.41719 18.8101 2.25608 19.8948 3.31644C20.9794 4.37681 21.8376 5.63748 22.4192 7.02509C23.0008 8.4127 23.2943 9.89954 23.2826 11.3991C23.314 12.9032 23.0287 14.3976 22.4444 15.7894C21.8601 17.1812 20.9894 18.4407 19.8862 19.4897ZM6.46759 16.5491C7.48692 17.5607 8.79392 18.2491 10.2187 18.525C11.6436 18.8008 13.1203 18.6514 14.4571 18.0959C15.7938 17.5405 16.9288 16.6049 17.7145 15.4106C18.5002 14.2163 18.9002 12.8186 18.8627 11.3991C18.8936 10.4442 18.7242 9.49317 18.3649 8.60466C18.0057 7.71615 17.4642 6.90894 16.7738 6.23272C15.3898 4.92589 13.5407 4.19549 11.6165 4.19549C9.69233 4.19549 7.8433 4.92589 6.45923 6.23272C5.76885 6.90894 5.22737 7.71615 4.86814 8.60466C4.5089 9.49317 4.33952 10.4442 4.37041 11.3991C4.33943 12.3523 4.50965 13.3015 4.87047 14.1876C5.23128 15.0736 5.77496 15.8775 6.46759 16.5491Z" fill="white"/>
<path d="M33.1458 22.794C30.7784 22.794 28.8191 22.1828 27.2678 20.9603C25.7165 19.7378 24.9423 17.949 24.945 15.5938H29.365C29.365 17.5732 30.6183 18.5643 33.1249 18.567C33.9917 18.6247 34.8548 18.4116 35.5897 17.9585C35.8515 17.7819 36.0647 17.5449 36.2105 17.2685C36.3562 16.9921 36.43 16.6848 36.4252 16.3739C36.4291 16.0328 36.3407 15.6968 36.169 15.3999C35.9974 15.103 35.7485 14.8557 35.4476 14.6831C34.5158 14.1424 33.5215 13.7119 32.4857 13.4007C31.9342 13.1924 31.6 13.0739 31.4956 13.0412C31.3912 13.0086 31.0778 12.8942 30.5347 12.6982C30.1874 12.5782 29.8507 12.4307 29.5279 12.2571C29.3775 12.1632 29.0767 12.008 28.6297 11.7874C28.2954 11.6442 27.9866 11.4498 27.7148 11.2116C27.4833 10.9784 27.2377 10.7588 26.9796 10.554C26.6924 10.3334 26.4573 10.0548 26.2902 9.73723C26.1649 9.46768 26.0103 9.1532 25.8265 8.79789C25.6456 8.44281 25.5216 8.06262 25.4589 7.67068C25.3933 7.24625 25.3611 6.81752 25.3628 6.38828C25.3628 4.38163 26.0786 2.81606 27.5101 1.69158C28.9616 0.55846 30.7749 -0.0387147 32.6319 0.00485212C34.5867 -0.0481174 36.494 0.598112 37.996 1.82227C39.4582 3.03116 40.1893 4.78459 40.1893 7.08257H35.8027C35.8027 5.17667 34.7458 4.21554 32.6319 4.19921C31.8758 4.15674 31.1283 4.37338 30.518 4.81182C30.2729 4.99862 30.0758 5.23878 29.9424 5.51316C29.8089 5.78755 29.7428 6.0886 29.7493 6.39236C29.7401 6.73409 29.8173 7.07275 29.974 7.37837C30.1306 7.68398 30.362 7.9471 30.6475 8.14443C31.4869 8.7047 32.4023 9.14735 33.3672 9.45951C34.8864 9.93047 36.3622 10.5261 37.7788 11.2402C39.8258 12.4518 40.8507 14.163 40.8535 16.3739C40.8535 18.3996 40.1169 19.976 38.6435 21.1032C37.0637 22.2669 35.1225 22.8639 33.1458 22.794Z" fill="white"/>
<path d="M65.8062 11.3999C65.8375 14.1372 64.8349 16.7896 62.9905 18.8493L65.4553 21.5734L62.2218 24.2035L59.6902 21.4182C57.9188 22.3667 55.9247 22.8463 53.9054 22.8096C51.8861 22.7728 49.9116 22.221 48.1776 21.2088C46.4436 20.1965 45.0101 18.7589 44.0192 17.0385C43.0284 15.318 42.5144 13.3743 42.5284 11.3999C42.5284 9.90571 42.8294 8.42613 43.4144 7.04565C43.9993 5.66518 44.8566 4.41085 45.9374 3.35428C47.0181 2.29771 48.3012 1.45959 49.7133 0.887782C51.1254 0.315971 52.6389 0.0216633 54.1673 0.0216633C55.6958 0.0216633 57.2092 0.315971 58.6213 0.887782C60.0334 1.45959 61.3165 2.29771 62.3973 3.35428C63.478 4.41085 64.3354 5.66518 64.9203 7.04565C65.5052 8.42613 65.8062 9.90571 65.8062 11.3999ZM54.1506 18.5675C55.0359 18.5835 55.9162 18.4352 56.7449 18.1305L54.184 15.2716L57.4133 12.666L60.0703 15.6065C60.9559 14.3709 61.4168 12.892 61.3863 11.3836C61.4179 10.4286 61.2489 9.47737 60.8896 8.58876C60.5303 7.70014 59.9884 6.893 59.2975 6.21722C57.9146 4.9097 56.0661 4.17877 54.1422 4.17877C52.2184 4.17877 50.3699 4.9097 48.987 6.21722C48.2967 6.89343 47.7552 7.70065 47.3959 8.58916C47.0367 9.47767 46.8673 10.4287 46.8982 11.3836C46.8684 12.3335 47.0385 13.2792 47.3978 14.1623C47.7571 15.0454 48.298 15.8469 48.987 16.5173C49.6584 17.1862 50.4631 17.7133 51.3513 18.0659C52.2395 18.4186 53.1922 18.5893 54.1506 18.5675Z" fill="white"/>
<path d="M71.5342 2.70025H72.4533V5.11803H69.6501V4.17052H70.306C70.051 3.98086 69.8481 3.73237 69.7154 3.44728C69.5827 3.1622 69.5244 2.84941 69.5456 2.53689C69.5378 2.19812 69.6038 1.86159 69.7392 1.54966C69.8746 1.23772 70.0764 0.957516 70.331 0.72764C70.86 0.255343 71.5517 -0.00448404 72.2681 5.85742e-05C72.9845 0.00460119 73.6727 0.27318 74.1954 0.752146C74.449 0.999784 74.6478 1.29584 74.7794 1.62186C74.9109 1.94789 74.9723 2.29691 74.9599 2.64716C74.9681 3.22085 74.7815 3.78101 74.4293 4.23995C74.109 4.67753 73.6393 4.98891 73.105 5.11803V4.08884C73.3625 3.97143 73.5738 3.77495 73.7066 3.52932C73.8715 3.26358 73.9569 2.95796 73.9531 2.64716C73.9619 2.42705 73.9241 2.20752 73.8422 2.00232C73.7602 1.79712 73.6358 1.61066 73.4768 1.45461C73.31 1.30021 73.113 1.18044 72.8976 1.10253C72.6822 1.02461 72.4529 0.990169 72.2235 1.00127C71.9898 0.991652 71.7564 1.02749 71.537 1.10671C71.3175 1.18593 71.1164 1.30696 70.9452 1.46278C70.7839 1.61609 70.6571 1.80061 70.5729 2.00455C70.4888 2.20849 70.4491 2.42736 70.4564 2.64716C70.4448 2.9885 70.5411 3.32504 70.7321 3.611C70.8205 3.74059 70.9343 3.85173 71.067 3.93796C71.1997 4.02419 71.3485 4.08381 71.505 4.11335L71.5342 2.70025Z" fill="white"/>
<path d="M69.6424 9.02224L71.4555 7.58056V6.94752H69.6424V5.95509H74.8603V7.88686C74.8609 8.10944 74.8166 8.32994 74.73 8.53578C74.6433 8.74162 74.5161 8.92877 74.3555 9.08653C74.1949 9.2443 74.0041 9.36959 73.7939 9.45526C73.5838 9.54093 73.3584 9.58531 73.1308 9.58584C72.815 9.5859 72.5065 9.49343 72.2451 9.32037C71.9727 9.15396 71.7552 8.91433 71.6185 8.63017L69.6424 10.2148V9.02224ZM73.8995 6.9802H72.3579V7.88686C72.3578 7.97952 72.3779 8.07113 72.4168 8.15563C72.4557 8.24012 72.5125 8.31557 72.5835 8.37695C72.7326 8.51035 72.9287 8.58208 73.1308 8.57707C73.3317 8.58275 73.5268 8.51085 73.6739 8.37695C73.7449 8.31557 73.8017 8.24012 73.8406 8.15563C73.8795 8.07113 73.8996 7.97952 73.8995 7.88686V6.9802Z" fill="white"/>
<path d="M70.323 14.6134C69.8691 14.1767 69.5844 13.5996 69.5174 12.9804C69.4505 12.3613 69.6055 11.7387 69.9561 11.2189C70.3066 10.6991 70.8308 10.3144 71.4392 10.1305C72.0477 9.94667 72.7025 9.97502 73.2919 10.2107C73.8813 10.4465 74.3688 10.8749 74.6709 11.423C74.9731 11.971 75.0712 12.6046 74.9485 13.2155C74.8259 13.8264 74.4901 14.3768 73.9985 14.7725C73.5068 15.1683 72.8899 15.3849 72.2531 15.3853C71.8946 15.3917 71.5385 15.3266 71.2067 15.1939C70.8748 15.0612 70.5741 14.8636 70.323 14.6134ZM71.0249 11.5585C70.7166 11.8752 70.5446 12.2956 70.5446 12.7327C70.5446 13.1698 70.7166 13.5902 71.0249 13.9069C71.3583 14.2109 71.7972 14.38 72.2531 14.38C72.709 14.38 73.148 14.2109 73.4813 13.9069C73.7925 13.5917 73.9664 13.1707 73.9664 12.7327C73.9664 12.2947 73.7925 11.8737 73.4813 11.5585C73.148 11.2545 72.709 11.0854 72.2531 11.0854C71.7972 11.0854 71.3583 11.2545 71.0249 11.5585Z" fill="white"/>
<path d="M69.9881 19.1712C69.6952 18.7864 69.5369 18.3195 69.5369 17.8398C69.5369 17.3601 69.6952 16.8932 69.9881 16.5084C70.1417 16.3324 70.3346 16.1934 70.5519 16.102C70.7693 16.0107 71.0052 15.9694 71.2414 15.9815H74.8635V16.9862H71.325C70.807 16.9862 70.5479 17.2721 70.5479 17.8398C70.5479 18.4075 70.807 18.7015 71.325 18.7015H74.8635V19.698H71.2414C71.0052 19.7101 70.7693 19.6689 70.5519 19.5775C70.3346 19.4862 70.1417 19.3471 69.9881 19.1712Z" fill="white"/>
<path d="M74.8603 22.4673C74.8655 22.6944 74.8233 22.9201 74.7364 23.1308C74.6495 23.3414 74.5197 23.5325 74.3548 23.6926C74.1947 23.8515 74.0038 23.9777 73.7933 24.0638C73.5828 24.15 73.3569 24.1943 73.1287 24.1943C72.9005 24.1943 72.6746 24.15 72.4641 24.0638C72.2536 23.9777 72.0627 23.8515 71.9025 23.6926C71.7371 23.5327 71.6067 23.3417 71.5191 23.1311C71.4314 22.9205 71.3885 22.6947 71.3929 22.4673V21.5688H69.6424V20.5723H74.8603V22.4673ZM72.3537 22.4673C72.3512 22.5636 72.3696 22.6592 72.4077 22.748C72.4459 22.8367 72.503 22.9164 72.5751 22.9819C72.7235 23.1201 72.9218 23.195 73.1266 23.1902C73.2275 23.1934 73.328 23.1766 73.422 23.1408C73.5161 23.105 73.6017 23.051 73.6739 22.9819C73.7454 22.916 73.802 22.8361 73.8402 22.7475C73.8783 22.6589 73.8971 22.5635 73.8953 22.4673V21.5688H72.3537V22.4673Z" fill="white"/>
</svg>
