<svg width="183" height="30" viewBox="0 0 183 30" fill="none" xmlns="http://www.w3.org/2000/svg">
<path d="M19.834 21.8514C18.7624 22.9196 17.4791 23.7628 16.0627 24.3294C14.6463 24.896 13.1266 25.1741 11.5965 25.1468C10.0679 25.1582 8.55241 24.8719 7.13834 24.3044C5.72427 23.737 4.44 22.8999 3.3605 21.8419C2.28101 20.7839 1.42792 19.5263 0.851042 18.1425C0.274163 16.7587 -0.0149458 15.2764 0.000594846 13.7821C-0.0149458 12.2879 0.274163 10.8056 0.851042 9.42174C1.42792 8.03792 2.28101 6.78032 3.3605 5.72234C4.44 4.66437 5.72427 3.82723 7.13834 3.25979C8.55241 2.69236 10.0679 2.40601 11.5965 2.41744C13.1263 2.40606 14.6432 2.69224 16.0589 3.25933C17.4746 3.82643 18.7607 4.66312 19.8425 5.7207C20.9244 6.77828 21.7802 8.03564 22.3603 9.41961C22.9404 10.8036 23.2331 12.2865 23.2215 13.7821C23.2528 15.2823 22.9682 16.7728 22.3855 18.1609C21.8027 19.5491 20.9342 20.8053 19.834 21.8514ZM6.45061 18.9186C7.46726 19.9275 8.77083 20.6142 10.1919 20.8893C11.613 21.1644 13.0859 21.0153 14.4191 20.4614C15.7524 19.9074 16.8844 18.9742 17.668 17.7831C18.4516 16.5919 18.8506 15.1979 18.8131 13.7821C18.8439 12.8297 18.675 11.8812 18.3167 10.995C17.9584 10.1089 17.4184 9.30376 16.7298 8.62932C15.3494 7.32592 13.5052 6.59744 11.586 6.59744C9.66688 6.59744 7.8227 7.32592 6.44227 8.62932C5.75371 9.30376 5.21365 10.1089 4.85536 10.995C4.49707 11.8812 4.32812 12.8297 4.35894 13.7821C4.32803 14.7328 4.49781 15.6796 4.85768 16.5633C5.21755 17.447 5.7598 18.2488 6.45061 18.9186Z" fill="white"/>
<path d="M33.0587 25.1472C30.6976 25.1472 28.7434 24.5375 27.1962 23.3182C25.649 22.0989 24.8768 20.3148 24.8795 17.9658H29.2879C29.2879 19.94 30.5379 20.9285 33.0379 20.9312C33.9024 20.9888 34.7633 20.7762 35.4962 20.3243C35.7574 20.1482 35.97 19.9118 36.1154 19.6361C36.2607 19.3604 36.3343 19.0539 36.3296 18.7438C36.3334 18.4037 36.2453 18.0686 36.074 17.7725C35.9028 17.4763 35.6546 17.2297 35.3546 17.0575C34.4251 16.5183 33.4334 16.0889 32.4004 15.7784C31.8504 15.5707 31.5171 15.4526 31.4129 15.42C31.3087 15.3874 30.9962 15.2733 30.4546 15.0778C30.1081 14.9581 29.7723 14.811 29.4504 14.6379C29.3004 14.5442 29.0004 14.3894 28.5545 14.1694C28.2211 14.0266 27.9131 13.8327 27.642 13.5951C27.4111 13.3625 27.1662 13.1435 26.9087 12.9393C26.6223 12.7192 26.3878 12.4413 26.2212 12.1246C26.0962 11.8558 25.942 11.5421 25.7587 11.1877C25.5782 10.8336 25.4546 10.4544 25.392 10.0635C25.3266 9.64019 25.2945 9.21258 25.2962 8.78447C25.2962 6.78309 26.0101 5.22163 27.4379 4.1001C28.8856 2.96996 30.6941 2.37435 32.5462 2.4178C34.4958 2.36497 36.3982 3.00951 37.8962 4.23045C39.3546 5.43616 40.0837 7.18499 40.0837 9.47694H35.7087C35.7087 7.57604 34.6546 6.61744 32.5462 6.60114C31.7921 6.55879 31.0465 6.77486 30.4379 7.21215C30.1934 7.39846 29.9968 7.63798 29.8637 7.91165C29.7306 8.18532 29.6647 8.48558 29.6712 8.78854C29.6621 9.12937 29.739 9.46715 29.8953 9.77195C30.0515 10.0768 30.2823 10.3392 30.567 10.536C31.4042 11.0948 32.3172 11.5363 33.2796 11.8476C34.7948 12.3174 36.2667 12.9115 37.6796 13.6236C39.7212 14.832 40.7435 16.5388 40.7462 18.7438C40.7462 20.7642 40.0115 22.3365 38.5421 23.4608C36.9664 24.6214 35.0303 25.2168 33.0587 25.1472Z" fill="white"/>
<path d="M65.6334 13.783C65.6646 16.513 64.6647 19.1585 62.8251 21.2128L65.2834 23.9297L62.0584 26.5529L59.5334 23.7749C57.7667 24.7209 55.7779 25.1993 53.7639 25.1626C51.7498 25.126 49.7806 24.5756 48.0511 23.566C46.3216 22.5564 44.8919 21.1226 43.9036 19.4067C42.9154 17.6907 42.4028 15.7521 42.4167 13.783C42.4167 12.2927 42.717 10.817 43.3004 9.44011C43.8837 8.06327 44.7388 6.81223 45.8167 5.75843C46.8947 4.70464 48.1744 3.86872 49.5828 3.29841C50.9911 2.7281 52.5006 2.43457 54.0251 2.43457C55.5495 2.43457 57.059 2.7281 58.4674 3.29841C59.8758 3.86872 61.1555 4.70464 62.2334 5.75843C63.3114 6.81223 64.1664 8.06327 64.7498 9.44011C65.3332 10.817 65.6334 12.2927 65.6334 13.783ZM54.0084 20.9317C54.8913 20.9477 55.7694 20.7998 56.5959 20.4958L54.0417 17.6445L57.2626 15.0457L59.9126 17.9785C60.7959 16.7461 61.2555 15.2711 61.2251 13.7667C61.2566 12.8142 61.088 11.8655 60.7297 10.9792C60.3714 10.0929 59.8309 9.28787 59.1418 8.61386C57.7625 7.30978 55.9189 6.58076 54.0001 6.58076C52.0813 6.58076 50.2376 7.30978 48.8584 8.61386C48.1698 9.2883 47.6298 10.0934 47.2715 10.9796C46.9132 11.8657 46.7443 12.8142 46.7751 13.7667C46.7454 14.7141 46.915 15.6573 47.2733 16.5381C47.6317 17.4188 48.1712 18.2182 48.8584 18.8869C49.528 19.554 50.3306 20.0797 51.2165 20.4315C52.1023 20.7832 53.0526 20.9534 54.0084 20.9317Z" fill="white"/>
<path d="M71.3464 5.10613H72.263V7.51756H69.4672V6.57254H70.1214C69.8671 6.38337 69.6647 6.13553 69.5324 5.8512C69.4 5.56686 69.3418 5.25489 69.363 4.94319C69.3552 4.60531 69.421 4.26967 69.5561 3.95855C69.6912 3.64744 69.8924 3.36797 70.1464 3.13869C70.6739 2.66764 71.3639 2.40849 72.0783 2.41302C72.7928 2.41755 73.4793 2.68543 74.0005 3.16313C74.2535 3.41012 74.4518 3.7054 74.583 4.03057C74.7142 4.35574 74.7755 4.70384 74.763 5.05317C74.7713 5.62536 74.5852 6.18405 74.2339 6.64178C73.9144 7.07821 73.446 7.38878 72.913 7.51756V6.49107C73.1699 6.37397 73.3806 6.17801 73.513 5.93302C73.6775 5.66798 73.7627 5.36316 73.7589 5.05317C73.7677 4.83364 73.73 4.61469 73.6483 4.41003C73.5665 4.20537 73.4425 4.01939 73.2839 3.86375C73.1175 3.70976 72.921 3.5903 72.7062 3.5126C72.4914 3.43489 72.2627 3.40053 72.0339 3.41161C71.8008 3.40201 71.568 3.43776 71.3491 3.51677C71.1303 3.59578 70.9296 3.71649 70.7589 3.8719C70.598 4.02481 70.4716 4.20885 70.3876 4.41225C70.3037 4.61566 70.2641 4.83395 70.2714 5.05317C70.2598 5.39362 70.3559 5.72928 70.5464 6.01449C70.6345 6.14373 70.748 6.25458 70.8804 6.34058C71.0127 6.42659 71.1612 6.48605 71.3172 6.51551L71.3464 5.10613Z" fill="white"/>
<path d="M69.4596 11.4115L71.2679 9.97362V9.34224H69.4596V8.35242H74.6637V10.2791C74.6643 10.5011 74.6201 10.721 74.5337 10.9263C74.4473 11.1316 74.3204 11.3183 74.1602 11.4756C74.0001 11.633 73.8097 11.758 73.6002 11.8434C73.3906 11.9288 73.1658 11.9731 72.9387 11.9736C72.6238 11.9737 72.3162 11.8815 72.0554 11.7089C71.7837 11.5429 71.5667 11.3039 71.4304 11.0205L69.4596 12.6009V11.4115ZM73.7054 9.37483H72.1679V10.2791C72.1678 10.3715 72.1878 10.4629 72.2266 10.5472C72.2654 10.6315 72.3221 10.7067 72.3929 10.7679C72.5416 10.901 72.7372 10.9725 72.9387 10.9675C73.1391 10.9732 73.3337 10.9015 73.4804 10.7679C73.5512 10.7067 73.6079 10.6315 73.6467 10.5472C73.6855 10.4629 73.7055 10.3715 73.7054 10.2791V9.37483Z" fill="white"/>
<path d="M70.1384 16.988C69.6857 16.5525 69.4017 15.9768 69.3349 15.3593C69.2681 14.7418 69.4228 14.1208 69.7724 13.6024C70.122 13.084 70.6448 12.7003 71.2516 12.5169C71.8585 12.3335 72.5116 12.3618 73.0995 12.5969C73.6873 12.832 74.1735 13.2594 74.4748 13.806C74.7762 14.3526 74.8741 14.9845 74.7517 15.5938C74.6294 16.2031 74.2945 16.752 73.8042 17.1467C73.3138 17.5414 72.6985 17.7574 72.0634 17.7579C71.7058 17.7643 71.3507 17.6993 71.0197 17.5669C70.6887 17.4346 70.3888 17.2376 70.1384 16.988ZM70.8384 13.9411C70.5309 14.2569 70.3594 14.6762 70.3594 15.1122C70.3594 15.5482 70.5309 15.9675 70.8384 16.2833C71.1709 16.5866 71.6087 16.7552 72.0634 16.7552C72.5181 16.7552 72.9559 16.5866 73.2884 16.2833C73.5987 15.969 73.7722 15.5491 73.7722 15.1122C73.7722 14.6753 73.5987 14.2555 73.2884 13.9411C72.9559 13.6379 72.5181 13.4693 72.0634 13.4693C71.6087 13.4693 71.1709 13.6379 70.8384 13.9411Z" fill="white"/>
<path d="M69.8044 21.5338C69.5122 21.15 69.3543 20.6843 69.3543 20.2059C69.3543 19.7275 69.5122 19.2618 69.8044 18.878C69.9575 18.7025 70.1499 18.5638 70.3667 18.4727C70.5834 18.3816 70.8187 18.3405 71.0544 18.3525H74.6669V19.3546H71.1377C70.621 19.3546 70.3627 19.6397 70.3627 20.2059C70.3627 20.7721 70.621 21.0654 71.1377 21.0654H74.6669V22.0593H71.0544C70.8187 22.0713 70.5834 22.0302 70.3667 21.9391C70.1499 21.848 69.9575 21.7093 69.8044 21.5338Z" fill="white"/>
<path d="M74.6637 24.8213C74.6689 25.0478 74.6268 25.2729 74.5402 25.483C74.4535 25.6931 74.324 25.8837 74.1596 26.0433C73.9999 26.2018 73.8095 26.3277 73.5995 26.4136C73.3896 26.4995 73.1643 26.5438 72.9367 26.5438C72.7091 26.5438 72.4837 26.4995 72.2738 26.4136C72.0638 26.3277 71.8735 26.2018 71.7137 26.0433C71.5488 25.8839 71.4186 25.6934 71.3313 25.4833C71.2439 25.2733 71.2011 25.048 71.2054 24.8213V23.9252H69.4596V22.9313H74.6637V24.8213ZM72.1637 24.8213C72.1612 24.9173 72.1795 25.0127 72.2176 25.1012C72.2557 25.1897 72.3126 25.2692 72.3846 25.3346C72.5325 25.4723 72.7303 25.547 72.9346 25.5423C73.0352 25.5455 73.1354 25.5287 73.2292 25.493C73.323 25.4573 73.4085 25.4034 73.4804 25.3346C73.5518 25.2688 73.6082 25.1891 73.6463 25.1007C73.6843 25.0124 73.703 24.9172 73.7012 24.8213V23.9252H72.1637V24.8213Z" fill="white"/>
<path d="M96.8931 3.02764H98.8251V12.8276H96.8931V8.71164H93.6451V12.8276H91.7131V3.02764H93.6451V6.86364H96.8931V3.02764ZM104.029 13.0236C101.971 13.0236 100.333 11.4136 100.333 9.32764C100.333 7.24164 101.971 5.63164 104.029 5.63164C106.087 5.63164 107.739 7.24164 107.739 9.32764C107.739 11.4136 106.087 13.0236 104.029 13.0236ZM104.029 11.2596C105.107 11.2596 105.933 10.4616 105.933 9.32764C105.933 8.19364 105.107 7.39564 104.029 7.39564C102.965 7.39564 102.139 8.19364 102.139 9.32764C102.139 10.4616 102.965 11.2596 104.029 11.2596ZM114.273 8.68364C115.057 9.03364 115.477 9.74764 115.477 10.6016C115.477 11.8336 114.651 12.8276 112.957 12.8276H109.149V9.78964V5.82764H110.843H112.369C113.755 5.82764 114.609 6.68164 114.609 7.71764C114.609 8.06764 114.483 8.38964 114.273 8.68364ZM110.843 7.28364V8.41764H112.789C112.859 8.29164 112.901 8.15164 112.901 7.99764C112.901 7.57764 112.607 7.26964 112.103 7.28364H110.843ZM112.803 11.3296C113.391 11.3296 113.713 11.0496 113.713 10.5456C113.713 10.0556 113.391 9.78964 112.803 9.78964H110.843V11.3296H112.803ZM119.809 8.06764C121.405 8.06764 122.455 9.01964 122.455 10.4476C122.455 11.8756 121.405 12.8276 119.809 12.8276H117.079H116.645V5.82764H118.451V8.06764H119.809ZM123.225 5.82764H125.031V12.8276H123.225V5.82764ZM119.823 11.2316C120.327 11.2316 120.691 10.9236 120.691 10.4476C120.691 9.97164 120.327 9.64964 119.823 9.64964H118.451V11.2316H119.823ZM127.786 4.93164V3.36364H131.846V4.93164H127.786ZM131.454 5.82764H132.798V12.8276H131.034V8.76764L128.164 12.8276H126.82V5.82764H128.584V9.88764L131.454 5.82764ZM143.353 8.68364C144.137 9.03364 144.557 9.74764 144.557 10.6016C144.557 11.8336 143.731 12.8276 142.037 12.8276H138.229V9.78964V5.82764H139.923H141.449C142.835 5.82764 143.689 6.68164 143.689 7.71764C143.689 8.06764 143.563 8.38964 143.353 8.68364ZM139.923 7.28364V8.41764H141.869C141.939 8.29164 141.981 8.15164 141.981 7.99764C141.981 7.57764 141.687 7.26964 141.183 7.28364H139.923ZM141.883 11.3296C142.471 11.3296 142.793 11.0496 142.793 10.5456C142.793 10.0556 142.471 9.78964 141.883 9.78964H139.923V11.3296H141.883ZM149.881 8.83764C150.497 9.22964 150.819 9.85964 150.819 10.6436C150.819 11.9176 149.853 13.0236 148.005 13.0236C146.143 13.0236 145.177 11.9596 145.177 10.5736H146.969C146.969 11.0916 147.319 11.3996 148.005 11.3996C148.691 11.3996 149.027 11.0916 149.027 10.5596C149.027 10.0696 148.649 9.74764 148.005 9.74764H147.347V8.37564H148.075C148.131 8.37564 148.187 8.38964 148.243 8.38964C148.453 8.23564 148.579 8.03964 148.579 7.80164C148.579 7.39564 148.299 7.19964 147.879 7.19964C147.459 7.19964 147.165 7.40964 147.165 7.85764H145.429C145.429 6.48564 146.339 5.63164 147.935 5.63164C149.447 5.63164 150.329 6.52764 150.329 7.63364C150.329 8.09564 150.175 8.50164 149.881 8.83764ZM156.511 5.82764V7.56364H153.809V12.8276H152.003V5.82764H156.511ZM162.679 5.82764V12.8276H160.873V7.56364H159.333V9.90164C159.333 12.1136 158.269 13.0376 156.379 12.9116V11.2176C157.121 11.3156 157.527 10.8956 157.527 9.80364V5.82764H159.333H162.679ZM170.079 5.82764V12.8276H168.315V10.6436H167.587L165.795 12.8276H163.709L165.697 10.4196C164.801 10.0136 164.269 9.14564 164.269 8.23564C164.269 6.98964 165.221 5.82764 166.803 5.82764H170.079ZM166.943 7.43764C166.425 7.43764 166.033 7.75964 166.033 8.29164C166.033 8.80964 166.425 9.11764 166.943 9.11764H168.315V7.43764H166.943ZM177.884 11.1896H178.808V12.8276V14.8436H177.044V12.8276H172.984V14.8436H171.22V12.3236V11.1896H172.032C172.438 10.6296 172.676 9.94364 172.676 8.65564V5.82764H174.44H177.226H177.884V11.1896ZM173.978 11.1896H176.12V7.45164H174.44V8.65564C174.44 9.74764 174.272 10.5456 173.978 11.1896ZM95.8011 19.8276H97.6071V26.8276H95.8011V24.1676H93.4351V26.8276H91.6291V19.8276H93.4351V22.4736H95.8011V19.8276ZM102.198 19.6316C103.752 19.6316 105.054 20.5556 105.054 22.3756V26.8276H103.29V26.2256C102.884 26.7156 102.268 27.0236 101.386 27.0236C100.14 27.0236 99.034 26.2816 99.034 24.8116C99.034 23.3416 100.14 22.6136 101.386 22.6136C102.268 22.6136 102.884 22.8796 103.29 23.2296V22.4876C103.29 21.6616 102.87 21.3116 102.198 21.3116C101.54 21.3116 101.12 21.6616 101.12 22.2076H99.356C99.356 20.5556 100.658 19.6316 102.198 19.6316ZM102.002 25.6796C102.8 25.6796 103.29 25.3156 103.29 24.8116C103.29 24.2796 102.8 23.9436 102.002 23.9436C101.204 23.9436 100.84 24.3076 100.84 24.8116C100.84 25.3156 101.204 25.6796 102.002 25.6796ZM114.445 19.8276H116.377L113.997 26.8276C113.325 28.8576 111.981 29.7256 110.301 29.6276V27.9476C111.281 27.9616 111.785 27.6116 112.107 26.7156L109.433 19.8276H111.365L113.059 24.4336L114.445 19.8276ZM123.351 19.8276V26.8276H121.545V21.5216H119.179V26.8276H117.373V19.8276H119.179H123.351ZM127.942 19.6316C129.496 19.6316 130.798 20.5556 130.798 22.3756V26.8276H129.034V26.2256C128.628 26.7156 128.012 27.0236 127.13 27.0236C125.884 27.0236 124.778 26.2816 124.778 24.8116C124.778 23.3416 125.884 22.6136 127.13 22.6136C128.012 22.6136 128.628 22.8796 129.034 23.2296V22.4876C129.034 21.6616 128.614 21.3116 127.942 21.3116C127.284 21.3116 126.864 21.6616 126.864 22.2076H125.1C125.1 20.5556 126.402 19.6316 127.942 19.6316ZM127.746 25.6796C128.544 25.6796 129.034 25.3156 129.034 24.8116C129.034 24.2796 128.544 23.9436 127.746 23.9436C126.948 23.9436 126.584 24.3076 126.584 24.8116C126.584 25.3156 126.948 25.6796 127.746 25.6796ZM138.747 26.8276H136.661L134.211 23.6636V26.8276H132.405V19.8276H134.211V22.9076L136.521 19.8276H138.607L135.947 23.2856L138.747 26.8276ZM142.658 27.0236C140.6 27.0236 138.962 25.4136 138.962 23.3276C138.962 21.2416 140.6 19.6316 142.658 19.6316C144.716 19.6316 146.368 21.2416 146.368 23.3276C146.368 25.4136 144.716 27.0236 142.658 27.0236ZM142.658 25.2596C143.736 25.2596 144.562 24.4616 144.562 23.3276C144.562 22.1936 143.736 21.3956 142.658 21.3956C141.594 21.3956 140.768 22.1936 140.768 23.3276C140.768 24.4616 141.594 25.2596 142.658 25.2596ZM152.902 22.6836C153.686 23.0336 154.106 23.7476 154.106 24.6016C154.106 25.8336 153.28 26.8276 151.586 26.8276H147.778V23.7896V19.8276H149.472H150.998C152.384 19.8276 153.238 20.6816 153.238 21.7176C153.238 22.0676 153.112 22.3896 152.902 22.6836ZM149.472 21.2836V22.4176H151.418C151.488 22.2916 151.53 22.1516 151.53 21.9976C151.53 21.5776 151.236 21.2696 150.732 21.2836H149.472ZM151.432 25.3296C152.02 25.3296 152.342 25.0496 152.342 24.5456C152.342 24.0556 152.02 23.7896 151.432 23.7896H149.472V25.3296H151.432ZM161.616 26.8276H159.53L157.08 23.6636V26.8276H155.274V19.8276H157.08V22.9076L159.39 19.8276H161.476L158.816 23.2856L161.616 26.8276ZM166.517 19.8276H168.449L166.069 26.8276C165.397 28.8576 164.053 29.7256 162.373 29.6276V27.9476C163.353 27.9616 163.857 27.6116 164.179 26.7156L161.505 19.8276H163.437L165.131 24.4336L166.517 19.8276Z" fill="white"/>
</svg>
