<svg width="34" height="34" viewBox="0 0 34 34" fill="none" xmlns="http://www.w3.org/2000/svg">
<path d="M17 2.83337C9.18 2.83337 2.83333 9.18004 2.83333 17C2.83333 24.82 9.18 31.1667 17 31.1667C24.82 31.1667 31.1667 24.82 31.1667 17C31.1667 9.18004 24.82 2.83337 17 2.83337ZM23.5733 12.4667C23.3608 14.705 22.44 20.145 21.9725 22.6525C21.7742 23.715 21.3775 24.0692 21.0092 24.1117C20.1875 24.1825 19.5642 23.5734 18.7708 23.0492C17.5242 22.2275 16.8158 21.7175 15.6117 20.9242C14.2092 20.0034 15.1158 19.4934 15.9233 18.6717C16.1358 18.4592 19.7625 15.1584 19.8333 14.8609C19.8432 14.8158 19.8419 14.769 19.8295 14.7246C19.8172 14.6802 19.7942 14.6394 19.7625 14.6059C19.6775 14.535 19.5642 14.5634 19.465 14.5775C19.3375 14.6059 17.3542 15.9234 13.4867 18.53C12.92 18.9125 12.41 19.1109 11.9567 19.0967C11.4467 19.0825 10.4833 18.8134 9.76083 18.5725C8.86833 18.2892 8.17416 18.1334 8.23083 17.6375C8.25916 17.3825 8.61333 17.1275 9.27916 16.8584C13.4158 15.0592 16.1642 13.8692 17.5383 13.3025C21.4767 11.6592 22.2842 11.3759 22.8225 11.3759C22.9358 11.3759 23.205 11.4042 23.375 11.5459C23.5167 11.6592 23.5592 11.815 23.5733 11.9284C23.5592 12.0134 23.5875 12.2684 23.5733 12.4667Z" fill="white"/>
</svg>
