<svg width="29" height="28" viewBox="0 0 29 28" fill="none" xmlns="http://www.w3.org/2000/svg">
<g clip-path="url(#clip0_2068_523)">
<path d="M14.5 0.560059C6.8121 0.560059 0.580002 6.57726 0.580002 14.0001C0.580002 21.4229 6.8121 27.4401 14.5 27.4401C22.1879 27.4401 28.42 21.4229 28.42 14.0001C28.42 6.57726 22.1879 0.560059 14.5 0.560059ZM19.8534 15.7235C19.8534 15.7235 21.0845 16.8967 21.3875 17.4413C21.3962 17.4534 21.4015 17.4627 21.4035 17.4693C21.5262 17.6681 21.5567 17.8253 21.4948 17.9411C21.3933 18.1343 21.0453 18.2295 20.9264 18.2379H18.7514C18.6006 18.2379 18.2845 18.2001 17.9017 17.9453C17.6074 17.7465 17.3174 17.4203 17.0346 17.1025C16.6127 16.6293 16.2473 16.2205 15.879 16.2205C15.8322 16.2203 15.7856 16.2274 15.7412 16.2415C15.4628 16.3283 15.1061 16.7119 15.1061 17.7339C15.1061 18.0531 14.8451 18.2365 14.661 18.2365H13.6648C13.3255 18.2365 11.558 18.1217 9.99195 16.5271C8.07505 14.5741 6.34955 10.6569 6.33505 10.6205C6.2263 10.3671 6.45105 10.2313 6.6961 10.2313H8.89285C9.18575 10.2313 9.28145 10.4035 9.34815 10.5561C9.42645 10.7339 9.71355 11.4409 10.1848 12.2361C10.949 13.5325 11.4173 14.0589 11.7929 14.0589C11.8633 14.0581 11.9324 14.0408 11.9944 14.0085C12.4845 13.7453 12.3932 12.0583 12.3714 11.7083C12.3714 11.6425 12.37 10.9537 12.1191 10.6233C11.9393 10.3839 11.6334 10.2929 11.4478 10.2593C11.5229 10.1592 11.6218 10.078 11.7363 10.0227C12.0727 9.86026 12.6788 9.83646 13.2806 9.83646H13.6155C14.268 9.84486 14.4362 9.88546 14.6726 9.94286C15.1511 10.0535 15.1612 10.3517 15.1192 11.3723C15.1061 11.6621 15.0931 11.9897 15.0931 12.3761L15.0887 12.6449C15.0742 13.1643 15.0568 13.7537 15.4367 13.9959C15.4857 14.0271 15.5433 14.0432 15.602 14.0421C15.734 14.0421 16.1313 14.0421 17.2072 12.2599C17.5377 11.6856 17.826 11.0896 18.0699 10.4763C18.0917 10.4399 18.1555 10.3279 18.2309 10.2845C18.2871 10.2587 18.3484 10.2448 18.4107 10.2439H20.9931C21.2744 10.2439 21.4673 10.2845 21.5035 10.3895C21.5673 10.5561 21.4919 11.0643 20.3131 12.6057L19.7867 13.2763C18.7181 14.6287 18.7181 14.6973 19.8534 15.7235Z" fill="white"/>
</g>
<defs>
<clipPath id="clip0_2068_523">
<rect width="29" height="28" fill="white"/>
</clipPath>
</defs>
</svg>
