<svg width="34" height="34" viewBox="0 0 34 34" fill="none" xmlns="http://www.w3.org/2000/svg">
<path d="M23.1767 19.8334C23.29 18.8984 23.375 17.9634 23.375 17C23.375 16.0367 23.29 15.1017 23.1767 14.1667H27.965C28.1917 15.0734 28.3333 16.0225 28.3333 17C28.3333 17.9775 28.1917 18.9267 27.965 19.8334M20.6692 27.71C21.5192 26.1375 22.1708 24.4375 22.6242 22.6667H26.8033C25.4433 25.0042 23.2758 26.8175 20.6692 27.71ZM20.315 19.8334H13.685C13.5433 18.8984 13.4583 17.9634 13.4583 17C13.4583 16.0367 13.5433 15.0875 13.685 14.1667H20.315C20.4425 15.0875 20.5417 16.0367 20.5417 17C20.5417 17.9634 20.4425 18.8984 20.315 19.8334ZM17 28.2767C15.8242 26.5767 14.875 24.6925 14.2942 22.6667H19.7058C19.125 24.6925 18.1758 26.5767 17 28.2767ZM11.3333 11.3334H7.19668C8.54251 8.98171 10.7242 7.16837 13.3167 6.29004C12.4667 7.86254 11.8292 9.56254 11.3333 11.3334ZM7.19668 22.6667H11.3333C11.8292 24.4375 12.4667 26.1375 13.3167 27.71C10.7242 26.8175 8.54251 25.0042 7.19668 22.6667ZM6.03501 19.8334C5.80834 18.9267 5.66668 17.9775 5.66668 17C5.66668 16.0225 5.80834 15.0734 6.03501 14.1667H10.8233C10.71 15.1017 10.625 16.0367 10.625 17C10.625 17.9634 10.71 18.8984 10.8233 19.8334M17 5.70921C18.1758 7.40921 19.125 9.30754 19.7058 11.3334H14.2942C14.875 9.30754 15.8242 7.40921 17 5.70921ZM26.8033 11.3334H22.6242C22.1708 9.56254 21.5192 7.86254 20.6692 6.29004C23.2758 7.18254 25.4433 8.98171 26.8033 11.3334ZM17 2.83337C9.16584 2.83337 2.83334 9.20837 2.83334 17C2.83334 20.7573 4.3259 24.3606 6.98266 27.0174C8.29816 28.3329 9.85988 29.3764 11.5787 30.0883C13.2974 30.8003 15.1396 31.1667 17 31.1667C20.7572 31.1667 24.3606 29.6742 27.0174 27.0174C29.6741 24.3606 31.1667 20.7573 31.1667 17C31.1667 15.1396 30.8002 13.2975 30.0883 11.5787C29.3764 9.85991 28.3329 8.29819 27.0174 6.98269C25.7019 5.6672 24.1401 4.62369 22.4214 3.91175C20.7026 3.19981 18.8604 2.83337 17 2.83337Z" fill="white"/>
</svg>
