<svg width="20" height="21" viewBox="0 0 20 21" fill="none" xmlns="http://www.w3.org/2000/svg">
<path d="M13.6333 12.1667C13.7 11.6167 13.75 11.0667 13.75 10.5C13.75 9.93332 13.7 9.38332 13.6333 8.83332H16.45C16.5833 9.36666 16.6667 9.92499 16.6667 10.5C16.6667 11.075 16.5833 11.6333 16.45 12.1667M12.1583 16.8C12.6583 15.875 13.0417 14.875 13.3083 13.8333H15.7667C14.9667 15.2083 13.6917 16.275 12.1583 16.8ZM11.95 12.1667H8.05C7.96667 11.6167 7.91667 11.0667 7.91667 10.5C7.91667 9.93332 7.96667 9.37499 8.05 8.83332H11.95C12.025 9.37499 12.0833 9.93332 12.0833 10.5C12.0833 11.0667 12.025 11.6167 11.95 12.1667ZM10 17.1333C9.30834 16.1333 8.75001 15.025 8.40834 13.8333H11.5917C11.25 15.025 10.6917 16.1333 10 17.1333ZM6.66667 7.16666H4.23334C5.025 5.78332 6.30834 4.71666 7.83334 4.19999C7.33334 5.12499 6.95834 6.12499 6.66667 7.16666ZM4.23334 13.8333H6.66667C6.95834 14.875 7.33334 15.875 7.83334 16.8C6.30834 16.275 5.025 15.2083 4.23334 13.8333ZM3.55001 12.1667C3.41667 11.6333 3.33334 11.075 3.33334 10.5C3.33334 9.92499 3.41667 9.36666 3.55001 8.83332H6.36667C6.3 9.38332 6.25 9.93332 6.25 10.5C6.25 11.0667 6.3 11.6167 6.36667 12.1667M10 3.85832C10.6917 4.85832 11.25 5.97499 11.5917 7.16666H8.40834C8.75001 5.97499 9.30834 4.85832 10 3.85832ZM15.7667 7.16666H13.3083C13.0417 6.12499 12.6583 5.12499 12.1583 4.19999C13.6917 4.72499 14.9667 5.78332 15.7667 7.16666ZM10 2.16666C5.39167 2.16666 1.66667 5.91666 1.66667 10.5C1.66667 12.7101 2.54465 14.8297 4.10745 16.3925C4.88127 17.1664 5.79993 17.7802 6.81098 18.199C7.82202 18.6178 8.90566 18.8333 10 18.8333C12.2101 18.8333 14.3298 17.9553 15.8926 16.3925C17.4554 14.8297 18.3333 12.7101 18.3333 10.5C18.3333 9.40564 18.1178 8.32201 17.699 7.31096C17.2802 6.29991 16.6664 5.38125 15.8926 4.60743C15.1187 3.83361 14.2001 3.21978 13.189 2.80099C12.178 2.3822 11.0944 2.16666 10 2.16666Z" fill="white"/>
</svg>
