<svg width="20" height="20" viewBox="0 0 20 20" fill="none" xmlns="http://www.w3.org/2000/svg">
<path d="M13.6333 11.6667C13.7 11.1167 13.75 10.5667 13.75 10C13.75 9.43334 13.7 8.88334 13.6333 8.33334H16.45C16.5833 8.86667 16.6667 9.425 16.6667 10C16.6667 10.575 16.5833 11.1333 16.45 11.6667M12.1583 16.3C12.6583 15.375 13.0417 14.375 13.3083 13.3333H15.7667C14.9667 14.7083 13.6917 15.775 12.1583 16.3ZM11.95 11.6667H8.05C7.96666 11.1167 7.91666 10.5667 7.91666 10C7.91666 9.43334 7.96666 8.875 8.05 8.33334H11.95C12.025 8.875 12.0833 9.43334 12.0833 10C12.0833 10.5667 12.025 11.1167 11.95 11.6667ZM10 16.6333C9.30833 15.6333 8.75 14.525 8.40833 13.3333H11.5917C11.25 14.525 10.6917 15.6333 10 16.6333ZM6.66666 6.66667H4.23333C5.025 5.28334 6.30833 4.21667 7.83333 3.70001C7.33333 4.62501 6.95833 5.625 6.66666 6.66667ZM4.23333 13.3333H6.66666C6.95833 14.375 7.33333 15.375 7.83333 16.3C6.30833 15.775 5.025 14.7083 4.23333 13.3333ZM3.55 11.6667C3.41666 11.1333 3.33333 10.575 3.33333 10C3.33333 9.425 3.41666 8.86667 3.55 8.33334H6.36666C6.3 8.88334 6.25 9.43334 6.25 10C6.25 10.5667 6.3 11.1167 6.36666 11.6667M10 3.35834C10.6917 4.35834 11.25 5.47501 11.5917 6.66667H8.40833C8.75 5.47501 9.30833 4.35834 10 3.35834ZM15.7667 6.66667H13.3083C13.0417 5.625 12.6583 4.62501 12.1583 3.70001C13.6917 4.22501 14.9667 5.28334 15.7667 6.66667ZM10 1.66667C5.39166 1.66667 1.66666 5.41667 1.66666 10C1.66666 12.2101 2.54464 14.3298 4.10744 15.8926C4.88126 16.6664 5.79992 17.2802 6.81097 17.699C7.82201 18.1178 8.90565 18.3333 10 18.3333C12.2101 18.3333 14.3298 17.4554 15.8926 15.8926C17.4554 14.3298 18.3333 12.2101 18.3333 10C18.3333 8.90566 18.1178 7.82202 17.699 6.81098C17.2802 5.79993 16.6664 4.88127 15.8926 4.10745C15.1187 3.33363 14.2001 2.7198 13.189 2.30101C12.178 1.88222 11.0943 1.66667 10 1.66667Z" fill="#00A499"/>
</svg>
